<?xml version="1.0" encoding="utf-8"?>
<!-- Generator: Adobe Illustrator 22.0.0, SVG Export Plug-In . SVG Version: 6.00 Build 0)  -->
<svg version="1.1" id="Livello_1" xmlns="http://www.w3.org/2000/svg" xmlns:xlink="http://www.w3.org/1999/xlink" x="0px" y="0px"
	 width="500px" height="420px" viewBox="0 0 500 420" style="enable-background:new 0 0 500 420;" xml:space="preserve">
<g>
	<linearGradient id="SVGID_1_" gradientUnits="userSpaceOnUse" x1="243.7796" y1="484.9527" x2="251.9635" y2="75.8084">
		<stop  offset="0" style="stop-color:#C66900"/>
		<stop  offset="1.112671e-02" style="stop-color:#DA7900"/>
		<stop  offset="2.518130e-02" style="stop-color:#EB8700"/>
		<stop  offset="4.269538e-02" style="stop-color:#F69100"/>
		<stop  offset="6.726032e-02" style="stop-color:#FD9600"/>
		<stop  offset="0.1355" style="stop-color:#FF9800"/>
		<stop  offset="1" style="stop-color:#FFC947"/>
	</linearGradient>
	<path style="opacity:0.68;fill:url(#SVGID_1_);" d="M11.3,64.2c13.2-37.8,35.9-53,48.2-55c50.8-8.3,66.1,13.6,126.9,18.2
		c84.9,6.5,97.2-32.9,147.5-17c34.9,11,62.2,56.1,116.9,146.3c47.8,78.9,46.7,95.2,41.7,105.8c-14.1,29.7-58.8,14.4-122.8,49.4
		c-58.3,31.8-50.7,60.7-96.4,84c-72,36.7-187.2,14-226.2-48.2c-28.9-46.1,9.6-73.1-17-155.1C5.8,117.8-1.4,100.6,11.3,64.2z"/>
	<linearGradient id="SVGID_2_" gradientUnits="userSpaceOnUse" x1="242.9691" y1="451.6335" x2="250.2311" y2="88.5788">
		<stop  offset="0" style="stop-color:#C66900"/>
		<stop  offset="1.112671e-02" style="stop-color:#DA7900"/>
		<stop  offset="2.518130e-02" style="stop-color:#EB8700"/>
		<stop  offset="4.269538e-02" style="stop-color:#F69100"/>
		<stop  offset="6.726032e-02" style="stop-color:#FD9600"/>
		<stop  offset="0.1355" style="stop-color:#FF9800"/>
		<stop  offset="1" style="stop-color:#FFC947"/>
	</linearGradient>
	<path style="opacity:0.68;fill:url(#SVGID_2_);" d="M36.7,78.2c11.7-33.5,31.8-47,42.8-48.8c45.1-7.4,58.7,12,112.6,16.2
		c75.3,5.8,86.2-29.2,130.9-15.1c30.9,9.8,55.2,49.8,103.8,129.8c42.5,70,41.5,84.5,37,93.8c-12.5,26.4-52.2,12.8-109,43.8
		c-51.7,28.3-45,53.9-85.5,74.6c-63.9,32.6-166.1,12.4-200.7-42.8c-25.7-40.9,8.5-64.9-15.1-137.6C31.8,125.8,25.4,110.6,36.7,78.2z
		"/>
	<g>
		<ellipse style="opacity:0.25;fill:#C66900;" cx="99" cy="335.2" rx="39.4" ry="8.3"/>
		<ellipse style="opacity:0.25;fill:#C66900;" cx="382.4" cy="341.3" rx="39.4" ry="8.3"/>
		<polygon style="fill:#FFFFFF;" points="259.2,110.6 328.1,144.4 321.7,329.9 143.9,329.9 141.6,227 130.9,144.9 193.3,113 		"/>
		<path style="fill:#FFFFFF;" d="M406.2,325.3l-39.1,9.9l-53.4-113.7l13.9-77.3c0,0,29.5,12.7,38.2,41.6S406.2,325.3,406.2,325.3z"
			/>
		<path style="fill:#FFFFFF;" d="M80.6,335.3l22.8-0.1l43.4-111.6l-14.5-79.4c0,0-28,12.3-36.8,41.4c-6.1,20.4-24.8,88-34.7,124.5
			C57.2,323.1,67,335.7,80.6,335.3z"/>
		<polygon style="fill:#82AAFE;" points="193.4,144.2 229.2,240.5 262.2,150.6 		"/>
		<polygon style="fill:#82AAFE;" points="226.4,150.7 254.8,165.3 279.8,121.7 265.9,112.4 		"/>
		<polygon style="fill:#82AAFE;" points="231.1,154 206.4,170.9 176.6,121.4 189.5,113.7 		"/>
		
			<ellipse transform="matrix(0.9997 -2.439470e-02 2.439470e-02 0.9997 -2.1794 6.5596)" style="fill:#F5A37D;" cx="267.8" cy="92.6" rx="12" ry="14.2"/>
		
			<ellipse transform="matrix(0.9997 -2.439601e-02 2.439601e-02 0.9997 -2.2036 4.5852)" style="fill:#F5A37D;" cx="186.8" cy="92.6" rx="12" ry="14.2"/>
		<path style="fill:#F5B99D;" d="M184.1,41.2c-0.1,0.1-0.1,0.3-0.1,0.4c-0.4,4.6-6.1,80.2,16.6,94.7c22.8,14.5,54.3,9.5,64.3-9.6
			c10-19,20.7-95-9.4-100.9C225.6,20,198.7,16.5,184.1,41.2z"/>
		<path style="fill:#00225C;" d="M179.2,28.1c-0.2,0.1-0.3,0.3-0.3,0.5c-16.3,11.3,4.3,64.9,4.3,64.9c0.4,0.9,1.7,0.7,1.9-0.3
			l7.7-45.8c0.1-0.7,0.9-1,1.5-0.7c21.3,11.3,45.3,11.7,65.1-2.9c0.6-0.4,1.4-0.1,1.6,0.6l9.6,48.5c0.2,0.9,1.3,1.1,1.8,0.4
			l7.3-22.6c0.1-0.1,8.6-26.2-1.3-35c-0.5-0.4,4-3.4,4.6-3.7l6.4-4.1c0.8-0.5,0.5-1.7-0.3-1.8c-6-1.2-21-4.6-26.2-9.6
			c-1-0.9-2.4-2-4.2-3.1C221.6-8.2,179.2,28.1,179.2,28.1z"/>
		<path style="fill:#F5A37D;" d="M228.2,91.8l-2.1,15.9c-0.1,0.6,0.2,1.3,0.5,1.3h4.3c0.3,0,0.6-0.6,0.5-1.3l-2.2-15.9
			C229,90.8,228.3,90.8,228.2,91.8z"/>
		<path style="fill:#2C4482;" d="M212.2,87.7c-1.2,0.3-2.7,0.5-4.2,0.5c-1.1,0-2.1-0.1-3.1-0.2c-0.1,0.8-0.1,1.7,0,2.7
			c0.4,4.1,2.5,7.1,4.6,6.9c2.1-0.3,3.5-3.8,3-7.8C212.5,89,212.4,88.3,212.2,87.7z"/>
		<path style="fill:#35519C;" d="M246.5,88.2c-1.3,0-2.4-0.1-3.5-0.3c-0.1,0.6-0.2,1.2-0.3,1.8c-0.4,4.1,1,6.5,3.1,6.8
			c2.1,0.3,4.1-1.8,4.5-5.9c0.1-1,0.1-1.9,0-2.8C249.1,88.1,247.8,88.2,246.5,88.2z"/>
		<path style="opacity:0.5;fill:#FFFFFF;" d="M270,81.5c-14.3-2-28-2-40-1.2c0,0-0.1,0-0.1,0c-11.9-0.8-25.7-0.8-40,1.2
			c-0.4,0.1-0.8,0.4-0.8,0.8c-0.8,3.9-3.7,22.7,21.8,20.6c0,0,12.7-0.9,13.8-9.5c0.1-0.5,0.5-0.9,1-0.9h8.6c0.5,0,0.9,0.4,1,0.8
			c1.2,8.6,13.8,9.5,13.8,9.5c25.5,2.1,22.6-16.8,21.8-20.6C270.8,81.8,270.5,81.5,270,81.5z"/>
		<path style="fill:#E7F4FA;" d="M186.1,104.1c-0.1-0.7,0.7-1.3,1.3-1c6.3,2.3,31.4,11.2,40,11c8.6-0.2,35.4-9.6,41.8-11.9
			c0.7-0.2,1.3,0.3,1.3,1v17.2c0,0.1,0,0.2,0,0.3l-1.8,5.6c0,0.1-0.1,0.2-0.1,0.3l-2.8,4.2c-0.1,0.1-0.2,0.2-0.3,0.3l-14.1,9.5
			c0,0-0.1,0-0.1,0.1l-15.8,8c-0.1,0.1-0.2,0.1-0.4,0.1l-10.2,1c-0.2,0-0.3,0-0.5-0.1l-11.6-4.7c-0.1,0-0.1-0.1-0.2-0.1L195,132.9
			c-0.1-0.1-0.3-0.2-0.3-0.4l-4.1-8.3c0,0,0-0.1,0-0.1l-3.6-9.4c0-0.1-0.1-0.2-0.1-0.3L186.1,104.1z"/>
		<path style="fill:#AFCFED;" d="M205.5,115.7c-1.2-0.3-1.7,1.4-0.6,1.9c6.3,2.8,16,6.3,25.8,6.2c16.5-0.2,34.9-11.4,34.9-11.4
			s-24.7,9.2-31.4,8.8C229.6,120.9,214.7,117.8,205.5,115.7z"/>
		<path style="fill:#AFCFED;" d="M207.6,124.8c-1.2-0.4-1.9,1.2-0.8,1.8c7.4,4.1,17.5,9.1,22.2,9.4c4.7,0.4,15.5-4.8,23.6-9.1
			c1.1-0.6,0.4-2.3-0.8-1.8l-21.3,7.4c-0.2,0.1-0.4,0.1-0.7,0L207.6,124.8z"/>
		<path style="fill:#AFCFED;" d="M197.8,130.5c0,0,14.8,10.7,22.9,11.1L197.8,130.5z"/>
		<path style="fill:#AFCFED;" d="M261.6,128.9c0.2-0.3-7.1,3.1-14.1,6.3c-1.2,0.5-0.4,2.3,0.8,1.9
			C253.1,135.2,258.2,132.6,261.6,128.9z"/>
		<path style="fill:#FFFFFF;" d="M186,98.4v6.2c0,0.4,0.2,0.7,0.5,0.9c3.1,1.6,19.5,9.4,42,9.7c22.8,0.2,39-11.4,41.6-13.5
			c0.2-0.2,0.4-0.5,0.4-0.8v-3.5c0-0.8-1-1.3-1.6-0.8c-4.5,3.6-18.4,12.8-39.8,12.8c-16.1,0-36.1-9.2-41.6-11.9
			C186.8,97.2,186,97.7,186,98.4z"/>
		<path style="fill:#FFFFFF;" d="M189.3,81.6c0,0,36-5.7,81.4,0l1.1,5.2c-28.5-2.5-56.3-2.7-83.3,0L189.3,81.6z"/>
		<polygon style="fill:#FFFFFF;" points="237.5,331.8 82.9,335.3 82.9,290.6 237.5,287.1 		"/>
		<ellipse style="fill:#3B498A;" cx="239" cy="310.1" rx="7" ry="21.7"/>
		<path style="fill:#F5B99D;" d="M239.9,297.3l3,0.7c20.2,4.8,38.7,15.1,53.3,29.9l2,2h-59L239.9,297.3z"/>
		
			<polyline style="fill:none;stroke:#9AC3EA;stroke-width:1.5461;stroke-linecap:round;stroke-linejoin:round;stroke-miterlimit:10;" points="
			310.4,135.9 292.5,187.9 265.6,210.6 282.1,236.8 249.2,290.4 		"/>
		
			<polyline style="fill:none;stroke:#9AC3EA;stroke-width:1.5461;stroke-linecap:round;stroke-linejoin:round;stroke-miterlimit:10;" points="
			149.6,135.9 167.6,187.9 194.5,210.6 178,236.8 210.8,290.4 		"/>
		<path style="fill:#00225C;" d="M242.1,78.7c-1.5-0.1-2-2-0.8-2.9c2.3-1.6,7.8-3.3,11.9-1.1c7.3,3.9,4.8,4.8,4.8,4.8L242.1,78.7z"
			/>
		<path style="fill:#00225C;" d="M215.4,78.7c1.5-0.1,2-2,0.8-2.9c-2.3-1.6-7.8-3.3-11.9-1.1c-7.3,3.9-4.8,4.8-4.8,4.8L215.4,78.7z"
			/>
		<polygon style="fill:#596B9C;" points="226.9,156.9 231.1,154 256.2,166.9 254.1,172.7 231.4,157.3 229,158.9 		"/>
		
			<ellipse transform="matrix(0.4884 -0.8726 0.8726 0.4884 -98.4391 425.5557)" style="fill:#3B498A;" cx="313.7" cy="296.7" rx="31.8" ry="10.9"/>
		<polygon style="fill:#F5B99D;" points="296,272.5 349.4,294.6 340,331.8 282.7,296.5 		"/>
		<path style="fill:#F5B99D;" d="M239.9,275.3l26,5.2c0,0,16.7-20.8,0-26.4c-16.7-5.7-26,1.9-26,1.9s-13.9-1.9-6.4-7.1
			s27.1-9.4,35.8,0c8.7,9.4,13.3,31.6,13.3,31.6s1.7,16.5,0,16C280.9,296.1,218.6,279.5,239.9,275.3z"/>
		<polygon style="fill:#F5B99D;" points="239.9,249.2 264.8,233.7 282.7,249.2 293.6,282.6 282.7,296.5 274.2,259.3 257,243.4 		"/>
		<path style="fill:#F5B99D;" d="M246.7,261.2c-2.9-6.5,28.7-20.3,28.7-20.3l16.9,6.1l6.1,31.6l-13.8,12.3l-0.8-33.7l-10.8-6.1
			C273,251.1,248.8,265.9,246.7,261.2z"/>
		<path style="fill:#FFFFFF;" d="M329.2,269c4.1,24.8-7.9,42.5-31,55.4l83.4,17.2h3.1c14,0,24.3-13.2,20.8-26.8l-9.1-23.5L329.2,269
			z"/>
		<g>
			<path style="fill:#AFCFED;stroke:#00225C;stroke-width:0.5;stroke-miterlimit:10;" d="M217.6,151.5V92.2c0-2.3-1.8-4.1-4.1-4.1
				h-11c-2.3,0-4.1,1.8-4.1,4.1v59.6c-7.5,2.5-13,9.6-13,17.9v8.9c0,10.4,8.5,18.9,18.9,18.9h8.9c10.4,0,18.9-8.5,18.9-18.9v-8.9
				C232,160.9,225.9,153.5,217.6,151.5z"/>
			<ellipse style="opacity:0.25;fill:#C66900;" cx="208.7" cy="353.7" rx="52.4" ry="8.3"/>
			<path style="fill:#FFFFFF;" d="M185,268.4h11.5c1.5,0,2.8-1.3,2.8-2.8l0,0c0-1.5-1.3-2.8-2.8-2.8H185c-1.5,0-2.8,1.3-2.8,2.8l0,0
				C182.2,267.2,183.4,268.4,185,268.4z"/>
			<path style="fill:#00225C;" d="M177.6,276.6h1.4c4.2,0,7.7-3.5,7.7-7.7v-6.2c0-4.2-3.5-7.7-7.7-7.7h-1.4c-4.2,0-7.7,3.5-7.7,7.7
				v6.2C169.9,273.2,173.4,276.6,177.6,276.6z"/>
			<path style="fill:#FFFFFF;" d="M229.2,268.4h-11.5c-1.5,0-2.8-1.3-2.8-2.8l0,0c0-1.5,1.3-2.8,2.8-2.8h11.5c1.5,0,2.8,1.3,2.8,2.8
				l0,0C232,267.2,230.8,268.4,229.2,268.4z"/>
			<path style="fill:#00225C;" d="M215.6,317.6h-15.8c-3.5,0-6.4-2.9-6.4-6.4v-58.5c0-3.5,2.9-6.4,6.4-6.4h15.8
				c3.5,0,6.4,2.9,6.4,6.4v58.5C221.9,314.7,219.1,317.6,215.6,317.6z"/>
			<path style="fill:#00225C;" d="M236.6,276.6h-1.4c-4.2,0-7.7-3.5-7.7-7.7v-6.2c0-4.2,3.5-7.7,7.7-7.7h1.4c4.2,0,7.7,3.5,7.7,7.7
				v6.2C244.3,273.2,240.8,276.6,236.6,276.6z"/>
			<path style="fill:#AFCFED;stroke:#00225C;stroke-width:0.5;stroke-miterlimit:10;" d="M242.2,232.2h-25.7v-26.1
				c0-2.1-1.7-3.8-3.8-3.8h-9.4c-2.1,0-3.8,1.7-3.8,3.8v26.1h-24.3c-2.1,0-3.8,1.7-3.8,3.8v1c0,2.1,1.7,3.8,3.8,3.8h24.4
				c0.3,1.8,1.8,3.2,3.7,3.2h9.4c1.9,0,3.4-1.4,3.7-3.2h25.7c2.1,0,3.8-1.7,3.8-3.8v-1C245.9,233.9,244.2,232.2,242.2,232.2z"/>
			<path style="fill:#00225C;" d="M242.2,246.4h-66.9c-2.1,0-3.8-1.7-3.8-3.8v-1c0-2.1,1.7-3.8,3.8-3.8h66.9c2.1,0,3.8,1.7,3.8,3.8
				v1C245.9,244.7,244.2,246.4,242.2,246.4z"/>
			<path style="fill:#00225C;" d="M229,205.4h-42.7c-2.1,0-3.8-1.7-3.8-3.8v-0.4c0-2.1,1.7-3.8,3.8-3.8H229c2.1,0,3.8,1.7,3.8,3.8
				v0.4C232.7,203.7,231,205.4,229,205.4z"/>
			<path style="fill:#00225C;" d="M180.8,216.3l-0.8-0.5c-1.9-1.2-2.4-3.6-1.3-5.5l6.4-10.3c1.2-1.9,3.6-2.4,5.5-1.3l0.8,0.5
				c1.9,1.2,2.4,3.6,1.3,5.5l-6.4,10.3C185.1,216.8,182.7,217.4,180.8,216.3z"/>
			<path style="fill:#00225C;" d="M224.8,219.2l-0.9,0.2c-2.1,0.5-4.3-0.8-4.8-2.9l-2.9-11.8c-0.5-2.1,0.8-4.3,2.9-4.8l0.9-0.2
				c2.1-0.5,4.3,0.8,4.8,2.9l2.9,11.8C228.2,216.5,226.9,218.7,224.8,219.2z"/>
			<path style="fill:#00225C;" d="M229,175.7h-40.7c-1.6,0-3-1.3-3-3l0,0c0-1.6,1.3-3,3-3H229c1.6,0,3,1.3,3,3l0,0
				C232,174.4,230.7,175.7,229,175.7z"/>
			<path style="fill:#00225C;" d="M198.4,125.1V92.2c0-2.3,1.8-4.1,4.1-4.1h11c2.3,0,4.1,1.8,4.1,4.1v32.9H198.4z"/>
			<path style="fill:#AFCFED;stroke:#00225C;stroke-width:0.5;stroke-miterlimit:10;" d="M256.9,345.2h-98.5c-2,0-3.6-1.6-3.6-3.6
				v-6.4c0-14.2,11.6-25.9,25.9-25.9h56.9c12.6,0,22.9,10.3,22.9,22.9v9.4C260.5,343.6,258.9,345.2,256.9,345.2z"/>
			<path style="fill:#00225C;" d="M257.8,345.2H157.5c-1.5,0-2.7-1.2-2.7-2.7l0,0c0-1.5,1.2-2.7,2.7-2.7h100.2
				c1.5,0,2.7,1.2,2.7,2.7l0,0C260.5,344,259.2,345.2,257.8,345.2z"/>
			<path style="fill:#00225C;" d="M169.2,354.1h-4.9c-2.6,0-4.7-2.1-4.7-4.7v-2.9c0-2.6,2.1-4.7,4.7-4.7h4.9c2.6,0,4.7,2.1,4.7,4.7
				v2.9C173.9,352,171.8,354.1,169.2,354.1z"/>
			<path style="fill:#00225C;" d="M250.3,354.1h-4.4c-2.5,0-4.6-2.1-4.6-4.6v-3.1c0-2.5,2.1-4.6,4.6-4.6h4.4c2.5,0,4.6,2.1,4.6,4.6
				v3.1C254.9,352.1,252.9,354.1,250.3,354.1z"/>
		</g>
		<polygon style="fill:#9AC3EA;" points="141.8,236.4 140.7,215 120.6,290.9 		"/>
		
			<path style="fill:none;stroke:#9AC3EA;stroke-width:1.5461;stroke-linecap:round;stroke-linejoin:round;stroke-miterlimit:10;" d="
			M73.7,262.9l21.8-77.3c0,0,5-17.1,15.9-26.3"/>
		<polygon style="fill:#9AC3EA;" points="324.6,244.8 324.6,225.6 346,274.6 336.3,271.4 		"/>
		
			<path style="fill:none;stroke:#9AC3EA;stroke-width:1.5461;stroke-linecap:round;stroke-linejoin:round;stroke-miterlimit:10;" d="
			M120.6,290.9c0,0-26.9,0.1-28.1,6.4"/>
		
			<path style="fill:none;stroke:#9AC3EA;stroke-width:1.5461;stroke-linecap:round;stroke-linejoin:round;stroke-miterlimit:10;" d="
			M346,274.6c0,0,39.4,13.8,44.8,18.7"/>
		
			<path style="fill:none;stroke:#FFFFFF;stroke-width:1.5461;stroke-linecap:round;stroke-linejoin:round;stroke-miterlimit:10;" d="
			M160.2,333.5c0,0,2.2-19.1,18.1-19.9c16-0.9,39.5,0.9,39.5,0.9"/>
	</g>
	<g>
		<g>
			
				<path style="fill:none;stroke:#00225C;stroke-width:1.305;stroke-linecap:round;stroke-linejoin:round;stroke-miterlimit:10;" d="
				M97.2,80.2l3.1-3.8c1.2-1.4,3.6-1.5,5.3,0l0,0c1.7,1.4,2.1,3.7,0.9,5.2l-3,3.5"/>
			
				<path style="fill:none;stroke:#00225C;stroke-width:1.305;stroke-linecap:round;stroke-linejoin:round;stroke-miterlimit:10;" d="
				M93.4,84.9L81.8,98.7c-0.7,0.8-0.8,2-0.4,3c-0.1,0-0.1,0.1-0.2,0.2l-1.9,2.2c-0.6,0.7-0.4,1.8,0.4,2.5c0.8,0.7,2,0.7,2.6,0
				l1.9-2.2c0,0,0-0.1,0.1-0.1c1.2,0.3,2.4,0,3.1-0.9l11.6-13.8"/>
		</g>
		<path style="fill:none;stroke:#00225C;stroke-width:1.305;stroke-linecap:round;stroke-linejoin:round;stroke-miterlimit:10;" d="
			M105.5,90.3L105.5,90.3c-1,1.2-2.9,1.5-4,0.6l-11.2-8.6c-1.2-0.9-1.3-2.6-0.2-3.9l0,0c1-1.2,2.9-1.5,4-0.6l11.2,8.6
			C106.4,87.3,106.5,89.1,105.5,90.3z"/>
		
			<ellipse transform="matrix(0.7071 -0.7071 0.7071 0.7071 -37.462 91.649)" style="fill:none;stroke:#00225C;stroke-width:1.305;stroke-linecap:round;stroke-linejoin:round;stroke-miterlimit:10;" cx="91.9" cy="91" rx="32" ry="32"/>
	</g>
	<g style="opacity:0.68;">
		<path style="fill:#FF9800;" d="M333.2,70.6c-7.9,0-14.3-6.4-14.3-14.3c0-7.9,6.4-14.3,14.3-14.3s14.3,6.4,14.3,14.3
			C347.5,64.1,341.1,70.6,333.2,70.6z M333.2,47.9c-4.6,0-8.4,3.8-8.4,8.4c0,4.6,3.8,8.4,8.4,8.4s8.4-3.8,8.4-8.4
			C341.6,51.6,337.8,47.9,333.2,47.9z"/>
	</g>
	<path style="opacity:0.68;fill:#FF9800;" d="M309.8,107c0,2.3-1.9,4.2-4.2,4.2c-2.3,0-4.2-1.9-4.2-4.2c0-2.3,1.9-4.2,4.2-4.2
		C307.9,102.8,309.8,104.7,309.8,107z"/>
</g>
</svg>
