<?xml version="1.0" encoding="utf-8"?>
<!-- Generator: Adobe Illustrator 22.0.0, SVG Export Plug-In . SVG Version: 6.00 Build 0)  -->
<svg version="1.1" id="Livello_1" xmlns="http://www.w3.org/2000/svg" xmlns:xlink="http://www.w3.org/1999/xlink" x="0px" y="0px"
	 width="534px" height="440px" viewBox="0 0 534 440" style="enable-background:new 0 0 534 440;" xml:space="preserve">
<g>
	
		<linearGradient id="SVGID_1_" gradientUnits="userSpaceOnUse" x1="-550.9082" y1="158.6165" x2="-144.2782" y2="158.6165" gradientTransform="matrix(0 1 -1 0 433.9378 583.5075)">
		<stop  offset="0" style="stop-color:#C66900"/>
		<stop  offset="1.112671e-02" style="stop-color:#DA7900"/>
		<stop  offset="2.518130e-02" style="stop-color:#EB8700"/>
		<stop  offset="4.269538e-02" style="stop-color:#F69100"/>
		<stop  offset="6.726032e-02" style="stop-color:#FD9600"/>
		<stop  offset="0.1355" style="stop-color:#FF9800"/>
		<stop  offset="1" style="stop-color:#FFC947"/>
	</linearGradient>
	<path style="opacity:0.39;fill:url(#SVGID_1_);" d="M533.5,32.6c0,0-194.3,0-284.5,86.3c-52.2,50-35.8,136.8-97.3,166
		C29.9,342.6,17.1,439.2,17.1,439.2h516.4V32.6z"/>
	
		<linearGradient id="SVGID_2_" gradientUnits="userSpaceOnUse" x1="-530.0854" y1="144.8805" x2="-143.9444" y2="144.8805" gradientTransform="matrix(0 1 -1 0 433.9378 583.5075)">
		<stop  offset="0" style="stop-color:#C66900"/>
		<stop  offset="1.112671e-02" style="stop-color:#DA7900"/>
		<stop  offset="2.518130e-02" style="stop-color:#EB8700"/>
		<stop  offset="4.269538e-02" style="stop-color:#F69100"/>
		<stop  offset="6.726032e-02" style="stop-color:#FD9600"/>
		<stop  offset="0.1355" style="stop-color:#FF9800"/>
		<stop  offset="1" style="stop-color:#FFC947"/>
	</linearGradient>
	<path style="opacity:0.68;fill:url(#SVGID_2_);" d="M534.2,53.4c0,0-184.5,0-270.2,82c-49.6,47.5-34,129.9-92.4,157.6
		C56,347.8,43.9,439.6,43.9,439.6h490.4V53.4z"/>
	<g>
		<ellipse style="opacity:0.4;fill:#C66900;" cx="254.1" cy="283.9" rx="50.1" ry="26.7"/>
		<g>
			<path style="fill:#EBF5FF;stroke:#00225C;stroke-width:0.5;stroke-miterlimit:10;" d="M272.9,274.5L272.9,274.5l-32.2-60.5h-0.1
				v-33.1c0.1-0.3,0.1-0.7,0.1-1c0-4.8-7.4-8.8-16.5-8.8c-9,0-16.3,3.9-16.5,8.7h0v34.2L178,270.4c-1.6,2-2.7,4.1-3.3,6.3l0,0h0
				c-0.4,1.3-0.6,2.6-0.6,4c0,14.7,22.4,26.7,50.1,26.7s50.1-12,50.1-26.7C274.3,278.6,273.8,276.5,272.9,274.5z"/>
			<ellipse style="fill:#2F81EC;" cx="224.1" cy="276.6" rx="36" ry="19.2"/>
			<path style="fill:#2F81EC;" d="M188.5,273.7l23.8-45.1c5.4-8.5,20-8,23.7,0l23.2,43.5L188.5,273.7z"/>
			<path style="fill:#EBF5FF;" d="M199.8,271.8L199.8,271.8c-1.4-0.7-2.1-2.4-1.4-3.8l11.5-24.8c0.7-1.4,2.4-2.1,3.8-1.4l0,0
				c1.4,0.7,2.1,2.4,1.4,3.8l-11.5,24.8C203,271.8,201.2,272.4,199.8,271.8z"/>
			
				<path style="fill:none;stroke:#AFCFED;stroke-width:0.9985;stroke-linecap:round;stroke-linejoin:round;stroke-miterlimit:10;" d="
				M213.9,187.5c0,0,6.9,4.5,19.8,0.6"/>
			
				<path style="fill:none;stroke:#AFCFED;stroke-width:0.9985;stroke-linecap:round;stroke-linejoin:round;stroke-miterlimit:10;" d="
				M214,180.2c0,0,0.8-4.1,9.5-4.1c8.7,0,10.8,3.2,10.8,3.2"/>
			<path style="fill:#85BBFF;" d="M224.1,225.1c-1.2,0-2.3,0.1-3.3,0.3c-2.4,0.5-4.2,1.7-4.2,1.7c0,0-0.1,0-0.1,0
				c-1.2,0.8-1.9,1.8-1.9,2.9c0,2.7,4.2,4.8,9.4,4.8c5.2,0,9.4-2.2,9.4-4.8S229.3,225.1,224.1,225.1z"/>
		</g>
		<path style="fill:none;stroke:#00225C;stroke-width:1.305;stroke-linecap:round;stroke-linejoin:round;stroke-miterlimit:10;" d="
			M232.4,157.1c0,3-2.4,5.5-5.5,5.5c-3,0-5.5-2.4-5.5-5.5c0-3,2.4-5.5,5.5-5.5C230,151.7,232.4,154.1,232.4,157.1z"/>
		
			<circle style="fill:none;stroke:#00225C;stroke-width:1.305;stroke-linecap:round;stroke-linejoin:round;stroke-miterlimit:10;" cx="207.7" cy="144.3" r="7.3"/>
		<path style="fill:none;stroke:#00225C;stroke-width:1.305;stroke-linecap:round;stroke-linejoin:round;stroke-miterlimit:10;" d="
			M236.1,131.1c0,4-3.3,7.3-7.3,7.3c-4,0-7.3-3.3-7.3-7.3c0-4,3.3-7.3,7.3-7.3C232.9,123.8,236.1,127,236.1,131.1z"/>
	</g>
	<g>
		<ellipse style="opacity:0.4;fill:#C66900;" cx="379.2" cy="246.2" rx="93.1" ry="16.5"/>
		<path style="fill:#00225C;" d="M454.4,234.4h-0.7c-1.4,0-2.5-1.1-2.5-2.5v-70.4c0-1.4,1.1-2.5,2.5-2.5h0.7c1.4,0,2.5,1.1,2.5,2.5
			v70.4C456.9,233.3,455.8,234.4,454.4,234.4z"/>
		<path style="fill:#00225C;" d="M307.2,234.4h-0.7c-1.4,0-2.5-1.1-2.5-2.5v-70.4c0-1.4,1.1-2.5,2.5-2.5h0.7c1.4,0,2.5,1.1,2.5,2.5
			v70.4C309.7,233.3,308.6,234.4,307.2,234.4z"/>
		<path style="fill:#00225C;" d="M482,164H283.6c-1.6,0-2.8-1.3-2.8-2.8l0,0c0-1.6,1.3-2.8,2.8-2.8H482c1.6,0,2.8,1.3,2.8,2.8l0,0
			C484.8,162.7,483.6,164,482,164z"/>
		<g>
			<path style="fill:#EBF5FF;stroke:#00225C;stroke-width:0.5;stroke-miterlimit:10;" d="M344.2,137.2c0-5.7-10.6-10.2-23.8-10.1
				s-23.8,4.9-23.8,10.7c0,3.3,3.5,6.2,9.1,8l0,74.5c0,7.9,6.4,14.2,14.3,14.1l0.8,0c7.9-0.1,14.3-6.6,14.3-14.5l0-74.5
				C340.7,143.5,344.2,140.5,344.2,137.2z"/>
			<g>
				<path style="fill:#3B498A;" d="M320.7,226.7l-0.5,0c-4.9,0.1-8.8-3.8-8.8-8.7l0-47.4c0-4.8,4-8.8,8.8-8.9l0.5,0
					c4.9-0.1,8.8,3.8,8.8,8.7l0,47.4C329.5,222.6,325.5,226.6,320.7,226.7z"/>
			</g>
			
				<path style="fill:none;stroke:#AFCFED;stroke-width:1.384;stroke-linecap:round;stroke-linejoin:round;stroke-miterlimit:10;" d="
				M306.9,137.6c0,0,1.2-5.5,13.6-5.7c12.4-0.2,15.4,4.2,15.4,4.2"/>
			
				<path style="fill:none;stroke:#AFCFED;stroke-width:1.384;stroke-linecap:round;stroke-linejoin:round;stroke-miterlimit:10;" d="
				M306.3,146.1c0,0,9.8,6,28.3,0.5"/>
		</g>
		<g>
			<path style="fill:#EBF5FF;stroke:#00225C;stroke-width:0.5;stroke-miterlimit:10;" d="M403.6,137.2c0-5.7-10.6-10.2-23.8-10.1
				s-23.8,4.9-23.8,10.7c0,3.3,3.5,6.2,9.1,8l0,74.5c0,7.9,6.4,14.2,14.3,14.1l0.8,0c7.9-0.1,14.3-6.6,14.3-14.5l0-74.5
				C400.1,143.5,403.6,140.5,403.6,137.2z"/>
			<g>
				<path style="fill:#FF9800;" d="M380.1,226.7l-0.5,0c-4.9,0.1-8.8-3.8-8.8-8.7l0-47.4c0-4.8,4-8.8,8.8-8.9l0.5,0
					c4.9-0.1,8.8,3.8,8.8,8.7l0,47.4C388.9,222.6,385,226.6,380.1,226.7z"/>
			</g>
			
				<path style="fill:none;stroke:#AFCFED;stroke-width:1.384;stroke-linecap:round;stroke-linejoin:round;stroke-miterlimit:10;" d="
				M366.3,137.6c0,0,1.2-5.5,13.6-5.7c12.4-0.2,15.4,4.2,15.4,4.2"/>
			
				<path style="fill:none;stroke:#AFCFED;stroke-width:1.384;stroke-linecap:round;stroke-linejoin:round;stroke-miterlimit:10;" d="
				M365.7,145.1c0,0,9.8,6,28.3,0.5"/>
		</g>
		<g>
			<path style="fill:#EBF5FF;stroke:#00225C;stroke-width:0.5;stroke-miterlimit:10;" d="M463.1,137.2c0-5.7-10.6-10.2-23.8-10.1
				s-23.8,4.9-23.8,10.7c0,3.3,3.5,6.2,9.1,8l0,74.5c0,7.9,6.4,14.2,14.3,14.1l0.8,0c7.9-0.1,14.3-6.6,14.3-14.5l0-74.5
				C459.5,143.5,463.1,140.5,463.1,137.2z"/>
			<g>
				<path style="fill:#6B74BA;" d="M439.6,226.7l-0.5,0c-4.9,0.1-8.8-3.8-8.8-8.7l0-47.4c0-4.8,4-8.8,8.8-8.9l0.5,0
					c4.9-0.1,8.8,3.8,8.8,8.7l0,47.4C448.4,222.6,444.4,226.6,439.6,226.7z"/>
			</g>
			
				<path style="fill:none;stroke:#AFCFED;stroke-width:1.384;stroke-linecap:round;stroke-linejoin:round;stroke-miterlimit:10;" d="
				M425.7,137.6c0,0,1.2-5.5,13.6-5.7c12.4-0.2,15.4,4.2,15.4,4.2"/>
			
				<path style="fill:none;stroke:#AFCFED;stroke-width:1.384;stroke-linecap:round;stroke-linejoin:round;stroke-miterlimit:10;" d="
				M425.2,145.7c0,0,9.8,6,28.3,0.5"/>
		</g>
		<path style="fill:#00225C;" d="M291.2,258L291.2,258c-1.6,0-2.8-1.3-2.8-2.8v-93.3c0-1.6,1.3-2.8,2.8-2.8l0,0
			c1.6,0,2.8,1.3,2.8,2.8v93.3C294,256.8,292.7,258,291.2,258z"/>
		<path style="fill:#00225C;" d="M469.5,258L469.5,258c-1.6,0-2.8-1.3-2.8-2.8v-93.3c0-1.6,1.3-2.8,2.8-2.8l0,0
			c1.6,0,2.8,1.3,2.8,2.8v93.3C472.3,256.8,471.1,258,469.5,258z"/>
		<path style="fill:#00225C;" d="M482,184.9H283.6c-1.6,0-2.8-1.3-2.8-2.8l0,0c0-1.6,1.3-2.8,2.8-2.8H482c1.6,0,2.8,1.3,2.8,2.8l0,0
			C484.8,183.6,483.6,184.9,482,184.9z"/>
		<path style="fill:#00225C;" d="M482,216.9H283.6c-1.6,0-2.8-1.3-2.8-2.8v0c0-1.6,1.3-2.8,2.8-2.8H482c1.6,0,2.8,1.3,2.8,2.8v0
			C484.8,215.7,483.6,216.9,482,216.9z"/>
	</g>
	<g style="opacity:0.24;">
		<path style="fill:#C66900;" d="M470.4,421.4c-8.2,0-14.9-6.7-14.9-14.9c0-8.2,6.7-14.9,14.9-14.9c8.2,0,14.9,6.7,14.9,14.9
			C485.4,414.7,478.7,421.4,470.4,421.4z M470.4,397.7c-4.8,0-8.7,3.9-8.7,8.7c0,4.8,3.9,8.7,8.7,8.7c4.8,0,8.7-3.9,8.7-8.7
			C479.2,401.6,475.3,397.7,470.4,397.7z"/>
	</g>
	<g>
		<path style="fill:#FFC947;" d="M49.2,346.2c-8.2,0-14.9-6.7-14.9-14.9c0-8.2,6.7-14.9,14.9-14.9s14.9,6.7,14.9,14.9
			C64.1,339.5,57.4,346.2,49.2,346.2z M49.2,322.5c-4.8,0-8.7,3.9-8.7,8.7c0,4.8,3.9,8.7,8.7,8.7s8.7-3.9,8.7-8.7
			C57.9,326.4,54,322.5,49.2,322.5z"/>
	</g>
	<path style="fill:none;stroke:#FFFFFF;stroke-width:0.9459;stroke-linecap:round;stroke-linejoin:round;stroke-miterlimit:10;" d="
		M431.8,2.9c3.5,0,70.5,0,70.5,0"/>
	<path style="fill:#FFC947;" d="M24.8,384.2c0,2.4-2,4.4-4.4,4.4s-4.4-2-4.4-4.4s2-4.4,4.4-4.4S24.8,381.7,24.8,384.2z"/>
	<g>
		<g>
			<path style="opacity:0.4;fill:#C66900;" d="M324.5,432.8l-140.6-52c-5.1-1.9-4.9-6.1,0.4-9.5l172.2-110.7
				c5.3-3.4,13.6-4.6,18.7-2.7l140.6,52c5.1,1.9,4.9,6.1-0.4,9.5L343.1,430C337.9,433.4,329.5,434.6,324.5,432.8z"/>
			<path style="fill:#3B498A;" d="M509,308.5c-0.5-0.4-1.2-0.7-1.9-1l-140.6-52c-5.1-1.9-13.4-0.6-18.7,2.7L175.6,369
				c-0.6,0.4-1.1,0.8-1.6,1.2l-2.8,1.5l0.5,3.7c0.4,1.3,1.6,2.4,3.5,3.1l140.6,52c5.1,1.9,13.4,0.6,18.7-2.7L506.8,317
				c2.7-1.8,4.1-3.7,4-5.5l-0.3-3L509,308.5z"/>
			<path style="fill:#6B74BA;" d="M315.5,427.4l-140.6-52c-5.1-1.9-4.9-6.1,0.4-9.5l172.2-110.7c5.3-3.4,13.6-4.6,18.7-2.7l140.6,52
				c5.1,1.9,4.9,6.1-0.4,9.5L334.2,424.7C328.9,428.1,320.6,429.3,315.5,427.4z"/>
			<polygon style="fill:#FFFFFF;" points="322.6,416.6 187.4,366.7 360.3,258.1 495.5,308.1 			"/>
			<path style="fill:#A8C4E5;" d="M461.1,287.7l-4.6-1.7l0,0c4.9-3,4.4-7.1-1.1-9.2l-25-9.3c-5.4-2-13.8-1.2-18.7,1.9l-3.1-1.1
				c-5.7-2.1-14.4-1.2-19.4,1.9l0,0c-5,3.2-4.5,7.4,1.1,9.5l52.5,19.4c5.7,2.1,14.4,1.2,19.4-1.9v0
				C467.3,294.1,466.8,289.8,461.1,287.7z"/>
			<path style="fill:#E1EAF4;" d="M460.7,284.1l-4.6-1.7l0,0c4.9-3,4.4-7.1-1.1-9.2l-25-9.3c-5.4-2-13.8-1.2-18.7,1.9l-3.1-1.1
				c-5.7-2.1-14.4-1.2-19.4,1.9l0,0c-5,3.2-4.5,7.4,1.1,9.5l52.5,19.4c5.7,2.1,14.4,1.2,19.4-1.9l0,0
				C466.9,290.5,466.4,286.2,460.7,284.1z"/>
			<path style="fill:#FFFFFF;" d="M447,284.7L408.6,270c-1.4-0.5-1.6-2.1-0.4-2.9h0c0.6-0.4,1.4-0.5,2.1-0.2l38.4,14.7
				c1.4,0.5,1.6,2.1,0.4,2.9l0,0C448.5,284.8,447.7,284.9,447,284.7z"/>
		</g>
		
			<line style="fill:none;stroke:#00225C;stroke-width:2.5966;stroke-linecap:round;stroke-linejoin:round;stroke-miterlimit:10;" x1="243.3" y1="341.3" x2="280.8" y2="355.4"/>
		
			<line style="fill:none;stroke:#00225C;stroke-width:2.5966;stroke-linecap:round;stroke-linejoin:round;stroke-miterlimit:10;" x1="231.4" y1="348.7" x2="335.3" y2="387.1"/>
		
			<line style="fill:none;stroke:#00225C;stroke-width:2.5966;stroke-linecap:round;stroke-linejoin:round;stroke-miterlimit:10;" x1="294.7" y1="308.3" x2="332.2" y2="322.4"/>
		
			<line style="fill:none;stroke:#00225C;stroke-width:2.5966;stroke-linecap:round;stroke-linejoin:round;stroke-miterlimit:10;" x1="282.8" y1="315.7" x2="386.7" y2="354.1"/>
		
			<line style="fill:none;stroke:#00225C;stroke-width:2.5966;stroke-linecap:round;stroke-linejoin:round;stroke-miterlimit:10;" x1="346.1" y1="275.3" x2="383.6" y2="289.4"/>
		
			<line style="fill:none;stroke:#00225C;stroke-width:2.5966;stroke-linecap:round;stroke-linejoin:round;stroke-miterlimit:10;" x1="334.2" y1="282.7" x2="438.1" y2="321.1"/>
	</g>
	<path style="fill:#00225C;" d="M379.4,360.5c3-0.5,5.6,0.1,5.9,1.4l0.7,3.7c0.2,1.3-2,2.8-5,3.4l-4.2,0.7l-9.6,1.7l-64.4,11.5
		l-4.1,0.7l-1.8,0.3c-1.1,0.2-2.3,0.3-3.4,0.3l-14.4-0.2c-2.4,0-2.7-1.5-0.4-2.4l13.4-5.2c1-0.4,2.1-0.7,3.3-0.9l1.8-0.3l4.1-0.7
		l64.4-11.5l0,0L379.4,360.5z"/>
	<g>
		<ellipse style="opacity:0.4;fill:#C66900;" cx="160.8" cy="319.1" rx="32.4" ry="17.3"/>
		<path style="fill:#EBF5FF;stroke:#00225C;stroke-width:0.5;stroke-miterlimit:10;" d="M168.7,314c0-8.8,0.2-36.2,0.2-36.8
			c0-4-2-7.7-5.4-10.6c-1.2-1-4.7-1.5-5-6.2c0,0-20.8-5.3-20.5-1c0.3,3.6-6.2,5.2-8,7.2c-3.3,2.8-5.4,6.5-5.4,10.6v40.1h0.1
			c-0.1,0.5-0.1,0.9-0.1,1.4c0,9,9.9,16.2,22.1,16.2c0.5,0,1.1,0,1.6,0c11.5-0.6,20.6-7.6,20.6-16.2c0-0.3,0-0.5,0-0.8L168.7,314z"
			/>
		<path style="fill:#D9A83B;" d="M165.1,288.6c0,4.3-5.7,7.9-13.5,9l-9.8,0c-7.8-1.1-13.4-4.7-13.4-9V312h0.1c0,0.5-0.1,1-0.1,1.4
			c0,9.2,8.2,16.7,18.4,16.7c10.1,0,18.4-7.5,18.4-16.7c0-0.7,0-1.4-0.1-2.1C164.9,311.4,165.1,289.3,165.1,288.6z"/>
		<ellipse style="fill:#E6BA55;" cx="146.7" cy="289.3" rx="18.4" ry="10.1"/>
		<path style="fill:#E1EAF4;stroke:#00225C;stroke-width:0.5;stroke-miterlimit:10;" d="M162.1,254.2c-0.2,0.7-0.5,1.5-0.9,2.3
			c-0.2,0.2-0.3,0.4-0.5,0.6c0,0,0,0.1-0.1,0.1c0,0,0-0.1,0.1-0.1c-2.5,2.8-8,4.7-14.4,4.7c-8.8,0-15.9-3.6-15.9-8.1v7.8v2.5
			c0,4.5,7.1,8.1,15.9,8.1c1.2,0,2.3-0.1,3.4-0.2c7.1-0.8,12.5-4,12.5-7.9v-2.5v0v-7.8C162.1,253.9,162.1,254,162.1,254.2z"/>
		<ellipse style="fill:#E6E6ED;stroke:#00225C;stroke-width:0.5;stroke-miterlimit:10;" cx="146.3" cy="254.5" rx="15.8" ry="7.7"/>
		<ellipse style="fill:#FFFFFF;" cx="146.3" cy="254.5" rx="9.9" ry="4.8"/>
		<path style="fill:#EBF5FF;" d="M132.8,319.1L132.8,319.1c-1.3,0-2.3-1-2.3-2.3v-24.3c0-1.3,1-2.3,2.3-2.3l0,0c1.3,0,2.3,1,2.3,2.3
			v24.3C135,318.1,134,319.1,132.8,319.1z"/>
	</g>
	<g>
		<path style="fill:none;stroke:#00225C;stroke-width:1.305;stroke-linecap:round;stroke-linejoin:round;stroke-miterlimit:10;" d="
			M384.7,43.7l3.2-4c1.3-1.5,3.8-1.5,5.5,0l0,0c1.8,1.5,2.2,3.9,0.9,5.4l-3.1,3.7"/>
		<path style="fill:none;stroke:#00225C;stroke-width:1.305;stroke-linecap:round;stroke-linejoin:round;stroke-miterlimit:10;" d="
			M380.8,48.6L368.7,63c-0.7,0.9-0.8,2.1-0.4,3.2c-0.1,0-0.1,0.1-0.2,0.2l-2,2.3c-0.6,0.7-0.4,1.9,0.5,2.6c0.9,0.7,2.1,0.7,2.7,0
			l2-2.3c0,0,0-0.1,0.1-0.1c1.2,0.3,2.5,0,3.3-0.9l12.1-14.4"/>
	</g>
	<path style="fill:none;stroke:#00225C;stroke-width:1.305;stroke-linecap:round;stroke-linejoin:round;stroke-miterlimit:10;" d="
		M393.4,54.2L393.4,54.2c-1.1,1.3-3,1.6-4.2,0.7l-11.6-9c-1.2-0.9-1.3-2.8-0.2-4.1l0,0c1.1-1.3,3-1.6,4.2-0.7l11.6,9
		C394.4,51.1,394.4,52.9,393.4,54.2z"/>
	
		<ellipse transform="matrix(0.7071 -0.7071 0.7071 0.7071 72.1872 284.235)" style="fill:none;stroke:#00225C;stroke-width:1.305;stroke-linecap:round;stroke-linejoin:round;stroke-miterlimit:10;" cx="379.2" cy="55" rx="33.4" ry="33.4"/>
	
		<line style="fill:none;stroke:#00225C;stroke-width:1.305;stroke-linecap:round;stroke-linejoin:round;stroke-miterlimit:10;" x1="379.2" y1="93.3" x2="379.2" y2="118.7"/>
</g>
</svg>
