<?xml version="1.0" encoding="utf-8"?>
<!-- Generator: Adobe Illustrator 22.0.0, SVG Export Plug-In . SVG Version: 6.00 Build 0)  -->
<svg version="1.1" id="Livello_1" xmlns="http://www.w3.org/2000/svg" xmlns:xlink="http://www.w3.org/1999/xlink" x="0px" y="0px"
	 width="150px" height="150px" viewBox="0 0 150 150" style="enable-background:new 0 0 150 150;" xml:space="preserve">
<g>
	<path style="fill:#FFFFFF;" d="M136.4,29.9l-11.9-11.9V9c0-1.3-1-2.4-2.3-2.6L83.5,2.8c-0.7-0.1-1.4,0.2-2,0.7
		C81,4,80.7,4.7,80.7,5.4v9.1L70.1,34.1c0,0,0,0.1,0,0.1c0,0.1-0.1,0.2-0.1,0.2c0,0.1-0.1,0.2-0.1,0.3c0,0.1,0,0.2,0,0.2
		c0,0.1,0,0.2,0,0.3c0,0,0,0.1,0,0.1v88.5c0,1.3,0.9,2.3,2.2,2.5l40.4,6.4c0.1,0,0.3,0,0.4,0c0,0,0,0,0,0c0,0,0,0,0,0c0,0,0,0,0,0
		c0.2,0,0.5,0,0.7-0.1c0,0,0.1,0,0.1,0c0.2-0.1,0.4-0.2,0.6-0.3c0,0,0,0,0.1,0l21.8-15.4c0.7-0.5,1.1-1.3,1.1-2.1v-83
		C137.1,31,136.8,30.4,136.4,29.9z M122.7,23.5l9.3,9.3v22.1l-16.6,8.8V40.4L122.7,23.5z M85.8,8.2l33.4,3.1v4.8l-33.4-3.3V8.2z
		 M84.7,18c0,0,0.1-0.1,0.1-0.1l33.3,3.3l-6.9,15.9l-34.7-3.9L84.7,18z M110.2,42.2v22.2l-35.2-3.4V38.2L110.2,42.2z M74.9,121.6
		V90.4l35.2,4.8v32L74.9,121.6z M115.3,125.2v-32L132,82.8v30.6L115.3,125.2z"/>
	<g id="layer1_3_">
		<g>
			<path style="fill:#FFFFFF;" d="M92.1,21.1c-2.4,0.1-14.4,1.2-16.8,1.4c-2.7,0.3-11,2.8-14.9,4.5c-0.6,0.3-2.1,0.8-3.3,1.2
				c-2.2,0.7-4.5,1.6-6.7,2.5c-0.7,0.3-1.8,0.8-2.4,1c-1.2,0.5-5.5,1.2-8.7,1.3c-2.7,0.1-8.7,1.2-10.2,1.9c-1.9,0.8-2.9,1.4-2.7,1.7
				c0.6,1.4,0.6,2.2,0.4,6.3l-0.1,2.2l-1.2,1.3c-1.3,1.5-3.1,3.9-4.1,5.6c-0.4,0.7-1.2,2-1.7,2.9c-0.5,0.9-1.1,1.9-1.3,2.3
				c-0.2,0.4-0.6,1.3-1,2.1c-1.3,2.5-2.8,5.8-3,6.9c-0.1,0.6-0.5,2.2-0.8,3.6C13,72,13,72.7,12.9,75.9c-0.1,3.9,0.3,7.3,0.9,9.3
				c0.3,1,0.3,1.1,0,2c-0.4,1.3-0.3,6.5,0.2,7c0.3,0.2,0.4,0.3,0.7,0.1c0.5-0.3,1.5-2.1,1.5-2.6c0-0.6,0.3-0.3,1,0.9
				c0.3,0.6,0.8,1.4,1.1,1.7c0.7,0.9,2.4,4.1,2.5,4.6c0,0.9,1.4,5.3,2.1,7.1c0.4,1,1,2.4,1.3,3.2c0.4,1.2,2.6,5.3,3.5,6.7
				c1.6,2.4,4.6,6.1,5.9,7.3l0.9,0.8l0-3.2c0-2.2,0.1-3.4,0.2-3.9c0.1-0.4,0.5-1.7,0.7-3c0.2-1.3,0.7-3,1.1-3.9
				c0.4-0.9,0.8-2.1,1-2.8c0.3-1.4,1.1-3.2,1.9-4.5c0.3-0.5,0.8-1.3,1-1.8c0.2-0.4,0.5-0.9,0.7-1.1c0.2-0.2,0.6-0.8,1-1.3
				c1.1-1.7,2.6-3.3,3-3.4c0.2,0,0.6-0.3,0.9-0.7c0.3-0.4,0.8-0.8,1.1-1.1c0.3-0.2,1.7-1.6,3.1-3.1c2-2.2,2.5-2.8,2.4-3.3
				c-0.1-1.3-1.7-1.6-7.1-1.2c-2.1,0.1-5.2,0.5-7,0.7c-3.6,0.5-5.2,0.5-8.4-0.2c-2.4-0.5-2.4-0.5-2.4-1.9c0.1-2.3,1.3-4.3,3.9-6.2
				c1.7-1.2,7.4-4.4,7.9-4.4c0.4,0,0.4,0.1,0.3,0.7c0,0.4-0.2,1.2-0.3,1.7c-1.1,3.7-1.1,4-1.1,6.1c0,2.6,0.1,3,1.2,2.7
				c0.8-0.2,3.2-2.7,4.6-4.7c1.1-1.6,2.5-4.6,3.1-6.9c0.6-2,1.4-3.4,2.9-5.2c1.3-1.4,1.6-1.7,3.8-2.9c1.4-0.7,3-1.6,3.7-1.8
				c0.7-0.3,1.7-0.7,2.2-1c0.5-0.3,1.5-0.7,2.1-0.9c3.5-1.4,14.5-7.4,15.6-8.4c0.3-0.2,0.4-0.2,0.6,0c0.2,0.2,0.3,0.5,0.3,0.7
				c0,0.2,0.1,0.4,0.2,0.5c0.1,0.1,0.5,0.9,0.8,1.8c0.4,0.9,1,2,1.4,2.4c0.4,0.4,0.8,1,0.9,1.3c0.1,0.3,0.4,0.8,0.7,1.1
				c0.3,0.3,0.6,0.8,0.7,1c0.1,0.3,0.3,0.4,0.4,0.4c0.2,0,0.5-0.2,0.8-0.5c0.4-0.3,0.6-0.9,0.9-2.4c0.4-1.7,0.4-2.5,0.3-6
				c0-2.3-0.2-4.6-0.3-5.4c-0.3-1.6-0.5-1.4,1.7-3c0.7-0.5,1.5-1.1,1.6-1.3c0.2-0.2,1.1-0.8,2-1.5c0.9-0.6,2-1.5,2.5-1.8
				c0.4-0.4,0.8-0.7,0.9-0.7c0.1,0,0.3-0.2,0.5-0.4c0.2-0.2,0.8-0.7,1.3-1.2c0.5-0.5,1.5-1.5,2.3-2.2c0.7-0.8,1.9-1.9,2.5-2.5
				c0.6-0.6,1.5-1.6,1.9-2.2c0.4-0.6,1.1-1.6,1.6-2.2c1-1.3,1.3-2.2,1.3-3.6c-0.1-1.2-0.4-1.5-1.1-1c-0.3,0.2-0.5,0.5-0.5,0.9
				c0,0.4-0.3,0.9-1.3,2c-1.3,1.4-1.6,1.5-1.1,0c0.3-0.7,0.9-1.5,2.9-3.8c0.6-0.7,0.7-0.9,0.5-1.3c-0.2-0.6-0.8-1-1.5-1.2
				c-1.1-0.3-4.9-0.6-7.1-0.5C95.4,20.9,93.4,21,92.1,21.1z"/>
		</g>
	</g>
	<g>
		<path style="fill:#FFFFFF;" d="M64.3,81.2c-5.2,22-20.9,33-20.9,44c0,11,5.2,22,20.9,22c15.7,0,20.9-11,20.9-22
			C85.2,114.2,69.6,103.2,64.3,81.2z M55.6,138.7c-10.9-14.1,0-21.8,0-21.8C53.7,128.5,55.6,138.7,55.6,138.7z"/>
	</g>
</g>
</svg>
