<?xml version="1.0" encoding="utf-8"?>
<!-- Generator: Adobe Illustrator 22.0.1, SVG Export Plug-In . SVG Version: 6.00 Build 0)  -->
<svg version="1.1" id="Livello_1" xmlns="http://www.w3.org/2000/svg" xmlns:xlink="http://www.w3.org/1999/xlink" x="0px" y="0px"
	 viewBox="0 0 471.7 213.7" style="enable-background:new 0 0 471.7 213.7;" xml:space="preserve">
<g>
	
		<linearGradient id="SVGID_1_" gradientUnits="userSpaceOnUse" x1="133.4765" y1="286.4296" x2="338.1235" y2="-68.0296" gradientTransform="matrix(1 0 0 -1 0 216)">
		<stop  offset="0" style="stop-color:#6B74BA"/>
		<stop  offset="0.6946" style="stop-color:#00225C"/>
	</linearGradient>
	<path style="fill:url(#SVGID_1_);" d="M458.3,212.8h-445c-6.6,0-12-5.4-12-12v-188c0-6.6,5.4-12,12-12h445c6.6,0,12,5.4,12,12v188
		C470.3,207.4,464.9,212.8,458.3,212.8z"/>
	<g>
		<g>
			<g>
				<defs>
					<path id="SVGID_2_" d="M458.3,212.8h-444c-6.6,0-12-5.4-12-12v-188c0-6.6,5.4-12,12-12h444c6.6,0,12,5.4,12,12v188
						C470.3,207.4,464.9,212.8,458.3,212.8z"/>
				</defs>
				<clipPath id="SVGID_3_">
					<use xlink:href="#SVGID_2_"  style="overflow:visible;"/>
				</clipPath>
				<path style="opacity:0.68;clip-path:url(#SVGID_3_);fill:#FFFFFF;enable-background:new    ;" d="M412.1-33.8
					c0,0-83.8,24.6-91.8,77.7s13,67.8,5.5,78.2s-69,67.1-51.5,103.8s45.2,48.5,48.6,49.7S453,243.5,453,243.5L562.2,196l-63-166
					l-16.6-78.6L412.1-33.8z"/>
			</g>
			<g>
				<defs>
					<path id="SVGID_4_" d="M458.3,212.8h-444c-6.6,0-12-5.4-12-12v-188c0-6.6,5.4-12,12-12h444c6.6,0,12,5.4,12,12v188
						C470.3,207.4,464.9,212.8,458.3,212.8z"/>
				</defs>
				<clipPath id="SVGID_5_">
					<use xlink:href="#SVGID_4_"  style="overflow:visible;"/>
				</clipPath>
				
					<linearGradient id="SVGID_6_" gradientUnits="userSpaceOnUse" x1="258.7341" y1="411.8598" x2="509.6306" y2="411.8598" gradientTransform="matrix(0.9632 -0.2686 -0.2686 -0.9632 136.9643 627.2537)">
					<stop  offset="0" style="stop-color:#C66900"/>
					<stop  offset="1.112671e-02" style="stop-color:#DA7900"/>
					<stop  offset="2.518130e-02" style="stop-color:#EB8700"/>
					<stop  offset="4.269538e-02" style="stop-color:#F69100"/>
					<stop  offset="6.726032e-02" style="stop-color:#FD9600"/>
					<stop  offset="0.1355" style="stop-color:#FF9800"/>
					<stop  offset="1" style="stop-color:#FFC947"/>
				</linearGradient>
				<path style="opacity:0.68;clip-path:url(#SVGID_5_);fill:url(#SVGID_6_);enable-background:new    ;" d="M433.7-27.4
					c0,0-83.8,24.6-91.8,77.7s13,67.8,5.5,78.2s-69,67.1-51.5,103.8s45.2,48.5,48.6,49.7c3.4,1.1,130.1-32.1,130.1-32.1l76.2-35.8
					L491.1,40.7l-19.9-71.3L433.7-27.4z"/>
			</g>
		</g>
		<g>
			<path style="opacity:0.4;fill:#C66900;" d="M319.1,181.8l104.2,22.4c3.9,0.9,7.8-1.6,8.5-5.6l4.4-26l2.8-11.7l18.9-121.3
				L319.1,181.8z"/>
			<path style="fill:#3B498A;" d="M423.2,200.6l-103.5-18.7c-3-0.5-5-3.4-4.4-6.4l28.4-156.7c0.5-3,3.4-5,6.4-4.4l103.5,18.7
				c3,0.5,5,3.4,4.4,6.4l-28.4,156.7C429,199.2,426.2,201.2,423.2,200.6z"/>
			<path style="fill:#3B498A;" d="M319.7,181.9l74.5,13.5l30.3-167.5L350,14.4c-3-0.5-5.9,1.4-6.4,4.4l-28.4,156.7
				C314.7,178.5,316.7,181.4,319.7,181.9z"/>
			<polygon style="fill:#00225C;" points="321.4,166.2 429.1,188.2 452.9,42.9 			"/>
			<g>
				
					<rect x="314.7" y="50.8" transform="matrix(0.1781 -0.984 0.984 0.1781 215.3496 466.8251)" style="fill:#CFD9E2;" width="144.7" height="107.5"/>
			</g>
			<g>
				<g>
					
						<rect x="314.3" y="50.6" transform="matrix(0.2202 -0.9754 0.9754 0.2202 199.7 458.5391)" style="fill:#CFD9E2;" width="144.7" height="107.5"/>
				</g>
			</g>
			<g>
				<g>
					
						<rect x="314.3" y="50.6" transform="matrix(0.1316 -0.9913 0.9913 0.1316 232.3023 473.9145)" style="fill:#FFFFFF;" width="144.7" height="107.5"/>
				</g>
			</g>
			<g>
				<g>
					<path style="opacity:0.47;fill:#FFFFFF;" d="M375.6,153.2l-48.8-6.5l16.1-121.1l84.4,11.2l-11.4,85.6
						C413.3,142,395.3,155.8,375.6,153.2z"/>
				</g>
			</g>
			<g>
				<g>
					<path style="fill:#E5E5E5;" d="M352.2,59l-1.8,12.8c-0.1,0.8,0.4,1.5,1.2,1.6l12.8,1.8c0.8,0.1,1.5-0.4,1.6-1.2l1.8-12.8
						c0.1-0.8-0.4-1.5-1.2-1.6l-12.8-1.8C353,57.7,352.3,58.3,352.2,59z M363.5,72.4L353.2,71l1.5-10.4l10.4,1.5L363.5,72.4z"/>
					<g>
						<path style="fill:#E5E5E5;" d="M408.8,80.8l-33.7-4.7c-0.6-0.1-1.1-0.7-1-1.3l0-0.3c0.1-0.6,0.7-1.1,1.3-1l33.7,4.7
							c0.6,0.1,1.1,0.7,1,1.3l0,0.3C410.1,80.4,409.5,80.9,408.8,80.8z"/>
						<path style="fill:#E5E5E5;" d="M430.7,78.6l-55.5-7.8c-0.3,0-0.5-0.3-0.5-0.6l0.2-1.5c0-0.3,0.3-0.5,0.6-0.5l55.5,7.8
							c0.3,0,0.5,0.3,0.5,0.6l-0.2,1.5C431.3,78.4,431,78.6,430.7,78.6z"/>
						<path style="fill:#E5E5E5;" d="M385.6,67l-8.5-1.2c-0.9-0.1-1.6-1-1.5-2l0.1-0.5c0.1-0.9,1-1.6,2-1.5l8.5,1.2
							c0.9,0.1,1.6,1,1.5,2l-0.1,0.5C387.5,66.5,386.6,67.1,385.6,67z"/>
					</g>
				</g>
				<g>
					<path style="fill:#E5E5E5;" d="M348.5,85.2L346.7,98c-0.1,0.8,0.4,1.5,1.2,1.6l12.8,1.8c0.8,0.1,1.5-0.4,1.6-1.2l1.8-12.8
						c0.1-0.8-0.4-1.5-1.2-1.6L350.1,84C349.3,83.9,348.6,84.4,348.5,85.2z M359.9,98.6l-10.4-1.5l1.5-10.4l10.4,1.5L359.9,98.6z"/>
					<g>
						<path style="fill:#E5E5E5;" d="M405.2,106.9l-33.7-4.7c-0.6-0.1-1.1-0.7-1-1.3l0-0.3c0.1-0.6,0.7-1.1,1.3-1l33.7,4.7
							c0.6,0.1,1.1,0.7,1,1.3l0,0.3C406.4,106.6,405.8,107,405.2,106.9z"/>
						<path style="fill:#E5E5E5;" d="M427,104.7L371.6,97c-0.3,0-0.5-0.3-0.5-0.6l0.2-1.5c0-0.3,0.3-0.5,0.6-0.5l55.5,7.8
							c0.3,0,0.5,0.3,0.5,0.6l-0.2,1.5C427.6,104.6,427.4,104.8,427,104.7z"/>
						<path style="fill:#E5E5E5;" d="M382,93.1l-8.5-1.2c-0.9-0.1-1.6-1-1.5-2l0.1-0.5c0.1-0.9,1-1.6,2-1.5l8.5,1.2
							c0.9,0.1,1.6,1,1.5,2l-0.1,0.5C383.8,92.6,382.9,93.3,382,93.1z"/>
					</g>
				</g>
				<g>
					<path style="fill:#E5E5E5;" d="M344.8,111.3l-1.8,12.8c-0.1,0.8,0.4,1.5,1.2,1.6l12.8,1.8c0.8,0.1,1.5-0.4,1.6-1.2l1.8-12.8
						c0.1-0.8-0.4-1.5-1.2-1.6l-12.8-1.8C345.7,110,344.9,110.6,344.8,111.3z M356.2,124.7l-10.4-1.5l1.5-10.4l10.4,1.5L356.2,124.7
						z"/>
					<g>
						<path style="fill:#E5E5E5;" d="M401.5,133.1l-33.7-4.7c-0.6-0.1-1.1-0.7-1-1.3l0-0.3c0.1-0.6,0.7-1.1,1.3-1l33.7,4.7
							c0.6,0.1,1.1,0.7,1,1.3l0,0.3C402.7,132.7,402.1,133.2,401.5,133.1z"/>
						<path style="fill:#E5E5E5;" d="M423.4,130.9l-55.5-7.8c-0.3,0-0.5-0.3-0.5-0.6l0.2-1.5c0-0.3,0.3-0.5,0.6-0.5l55.5,7.8
							c0.3,0,0.5,0.3,0.5,0.6l-0.2,1.5C424,130.7,423.7,130.9,423.4,130.9z"/>
						<path style="fill:#E5E5E5;" d="M378.3,119.3l-8.5-1.2c-0.9-0.1-1.6-1-1.5-2l0.1-0.5c0.1-0.9,1-1.6,2-1.5l8.5,1.2
							c0.9,0.1,1.6,1,1.5,2l-0.1,0.5C380.1,118.8,379.2,119.4,378.3,119.3z"/>
					</g>
				</g>
				<g>
					<path style="fill:#E5E5E5;" d="M341.2,137.5l-1.8,12.8c-0.1,0.8,0.4,1.5,1.2,1.6l12.8,1.8c0.8,0.1,1.5-0.4,1.6-1.2l1.8-12.8
						c0.1-0.8-0.4-1.5-1.2-1.6l-12.8-1.8C342,136.2,341.3,136.7,341.2,137.5z M352.5,150.9l-10.4-1.5l1.5-10.4l10.4,1.5L352.5,150.9
						z"/>
					<g>
						<path style="fill:#E5E5E5;" d="M397.9,159.2l-33.7-4.7c-0.6-0.1-1.1-0.7-1-1.3l0-0.3c0.1-0.6,0.7-1.1,1.3-1l33.7,4.7
							c0.6,0.1,1.1,0.7,1,1.3l0,0.3C399.1,158.9,398.5,159.3,397.9,159.2z"/>
						<path style="fill:#E5E5E5;" d="M419.7,157l-55.5-7.8c-0.3,0-0.5-0.3-0.5-0.6l0.2-1.5c0-0.3,0.3-0.5,0.6-0.5l55.5,7.8
							c0.3,0,0.5,0.3,0.5,0.6l-0.2,1.5C420.3,156.9,420,157.1,419.7,157z"/>
						<path style="fill:#E5E5E5;" d="M374.6,145.4l-8.5-1.2c-0.9-0.1-1.6-1-1.5-2l0.1-0.5c0.1-0.9,1-1.6,2-1.5l8.5,1.2
							c0.9,0.1,1.6,1,1.5,2l-0.1,0.5C376.5,144.9,375.6,145.6,374.6,145.4z"/>
					</g>
				</g>
			</g>
			<path style="fill:#E5E5E5;" d="M412.3,57.5l-34.1-4.8c-0.5-0.1-0.9-0.6-0.8-1.1L378,47c0.1-0.5,0.6-0.9,1.1-0.8l34.1,4.8
				c0.5,0.1,0.9,0.6,0.8,1.1l-0.7,4.7C413.3,57.2,412.8,57.6,412.3,57.5z"/>
			<path style="fill:#CAD6E0;" d="M377.9,29.3l-0.8,4.4c-0.3,1.4,0.7,2.8,2.1,3l39.1,7.1c1.4,0.3,2.8-0.7,3-2.1l0.8-4.4L377.9,29.3z
				"/>
			<path style="fill:#BABABA;" d="M420.6,31.2L410,29.3c-0.7-0.1-1.1-0.8-1-1.5l0.3-1.8c0.8-4.2-1.9-8.4-6-9.3
				c-4.4-1-8.6,1.9-9.4,6.3l-0.4,2c-0.1,0.7-0.8,1.1-1.5,1l-10.6-1.9c-1.4-0.3-2.8,0.7-3,2.1l-1.1,6.1c-0.3,1.4,0.7,2.8,2.1,3
				l39.1,7.1c1.4,0.3,2.8-0.7,3-2.1l1.1-6.1C422.9,32.8,422,31.4,420.6,31.2z M398.4,23.8c0.3-1.8,2-3,3.8-2.7c1.8,0.3,3,2,2.7,3.8
				c-0.3,1.8-2,3-3.8,2.7l0,0C399.2,27.3,398.1,25.6,398.4,23.8z"/>
			<path style="opacity:0.2;fill:#FFFFFF;" d="M399.8,19.5c-0.6-1.5,0.6-3.1,2.1-3c0.4,0,0.7,0.1,1.1,0.1c0.5,0.1,1.1,0.2,1.5,0.4
				c1.5,0.6,1.8,2.5,0.7,3.6l-0.1,0.1c-0.6,0.6-1.5,0.8-2.4,0.5c-0.2-0.1-0.4-0.1-0.6-0.2c-0.1,0-0.3,0-0.4,0c-0.9,0-1.7-0.6-2-1.4
				L399.8,19.5z M412.6,32.1L412.6,32.1c0.2-1.3-0.6-2.5-1.9-2.7l-0.6-0.1l0,0l-3.5-0.6c-1.3-0.2-2.1-1.4-1.9-2.7l0.2-1
				c-0.3,1.8-2,3-3.8,2.7l0,0c-0.6-0.1-1.2-0.4-1.6-0.8c0,0,0,0,0,0c-0.6-0.5-0.9-1.1-1.1-1.9c0-0.2,0-0.3,0-0.5c0-0.1,0-0.2,0-0.4
				c0,0,0-0.1,0-0.1c0-0.1,0-0.1,0-0.2c0,0,0-0.1,0-0.1c0,0,0-0.1,0-0.1c0-0.1,0-0.2,0.1-0.3c0,0,0,0,0,0c0,0,0,0,0,0c0,0,0,0,0,0
				c0.1-0.2,0.1-0.3,0.2-0.5c0,0,0,0,0,0c0.1-0.2,0.2-0.3,0.3-0.4l0,0c0.4-0.7,0.3-1.5-0.1-2.2c-0.9-1.4-2.9-1.5-3.9-0.1
				c0,0,0,0,0,0c-0.1,0.1-0.1,0.2-0.2,0.3c-0.1,0.1-0.1,0.2-0.2,0.3c0,0.1-0.1,0.1-0.1,0.2c-0.1,0.1-0.1,0.3-0.2,0.4l0,0
				c0,0,0,0,0,0c0,0,0,0,0,0c0,0.1-0.1,0.2-0.1,0.2c-0.2,0.5-0.3,1-0.4,1.5l-0.4,2l0,0c0,0.1,0,0.2-0.1,0.2c0,0.1-0.1,0.2-0.1,0.2
				c-0.3,0.4-0.8,0.6-1.3,0.6l0,0l-10.6-1.9c-0.7-0.1-1.4,0-2,0.4c0,0,0,0,0,0c-0.2,0.1-0.4,0.3-0.6,0.5c-0.3,0.3-0.5,0.7-0.5,1.2
				l-0.4,2c-0.3,1.8,0.9,3.5,2.6,3.8l25.4,4.6C409.1,37.1,412,35.1,412.6,32.1z"/>
			<g>
				<path style="fill:#FFFFFF;" d="M381.1,27.1c-0.3-0.1-0.5-0.4-0.4-0.7c0.1-0.3,0.4-0.5,0.7-0.5l4.7,0.9c0.3,0.1,0.5,0.4,0.5,0.7
					c-0.1,0.3-0.4,0.5-0.7,0.5L381.1,27.1C381.1,27.1,381.1,27.1,381.1,27.1z"/>
			</g>
			<g>
				<path style="fill:#FFFFFF;" d="M389.3,28.6c-0.3-0.1-0.5-0.4-0.4-0.7c0.1-0.3,0.4-0.5,0.7-0.5l1.2,0.2c0.3,0.1,0.5,0.4,0.5,0.7
					c-0.1,0.3-0.4,0.5-0.7,0.5L389.3,28.6C389.4,28.6,389.3,28.6,389.3,28.6z"/>
			</g>
			<g>
				<g>
					<g>
						<g>
							<path style="fill:#00225C;" d="M358.7,70.6l-8.1-8.9c-0.1-0.1-0.1-0.2,0-0.3l3-2.8c0.1-0.1,0.2-0.1,0.3,0l5.1,5.6
								c0.1,0.1,0.2,0.1,0.3,0l10.2-9.2c0.1-0.1,0.2-0.1,0.3,0l2.8,3c0.1,0.1,0.1,0.2,0,0.3l-13.5,12.2
								C358.8,70.7,358.7,70.7,358.7,70.6z"/>
						</g>
					</g>
				</g>
			</g>
			<g>
				<g>
					<g>
						<g>
							<path style="fill:#00225C;" d="M354.5,96.8l-8.1-8.9c-0.1-0.1-0.1-0.2,0-0.3l3-2.8c0.1-0.1,0.2-0.1,0.3,0l5.1,5.6
								c0.1,0.1,0.2,0.1,0.3,0l10.2-9.2c0.1-0.1,0.2-0.1,0.3,0l2.8,3c0.1,0.1,0.1,0.2,0,0.3l-13.5,12.2
								C354.7,96.9,354.6,96.9,354.5,96.8z"/>
						</g>
					</g>
				</g>
			</g>
			<g>
				<g>
					<g>
						<g>
							<path style="fill:#00225C;" d="M350.4,123.1l-8.1-8.9c-0.1-0.1-0.1-0.2,0-0.3l3-2.8c0.1-0.1,0.2-0.1,0.3,0l5.1,5.6
								c0.1,0.1,0.2,0.1,0.3,0l10.2-9.2c0.1-0.1,0.2-0.1,0.3,0l2.8,3c0.1,0.1,0.1,0.2,0,0.3l-13.5,12.2
								C350.6,123.2,350.5,123.1,350.4,123.1z"/>
						</g>
					</g>
				</g>
			</g>
			<g>
				<g>
					<g>
						<g>
							<path style="fill:#00225C;" d="M346.7,149.4l-8.1-8.9c-0.1-0.1-0.1-0.2,0-0.3l3-2.8c0.1-0.1,0.2-0.1,0.3,0l5.1,5.6
								c0.1,0.1,0.2,0.1,0.3,0l10.2-9.2c0.1-0.1,0.2-0.1,0.3,0l2.8,3c0.1,0.1,0.1,0.2,0,0.3L347,149.4
								C346.9,149.5,346.8,149.5,346.7,149.4z"/>
						</g>
					</g>
				</g>
			</g>
			<ellipse style="opacity:0.4;fill:#C66900;" cx="405.9" cy="198" rx="55.4" ry="9.8"/>
			<g>
				<path style="fill:#EBF5FF;stroke:#00225C;stroke-width:0.3944;stroke-miterlimit:10;" d="M422.7,115c2.1-4-3.7-11-12.9-15.7
					c-9.2-4.7-18.4-5.3-20.5-1.3c-1.2,2.3,0.2,5.6,3.4,8.9L365.4,159c-2.9,5.5-0.7,12.3,4.8,15.1l0.5,0.3c5.5,2.8,12.4,0.6,15.3-4.8
					l27.3-52.1C418,118.1,421.5,117.3,422.7,115z"/>
				<g>
					<path style="fill:#3B498A;" d="M373.5,168.9l-0.3-0.2c-3.4-1.7-4.8-5.9-3-9.3l17.4-33.1c1.8-3.4,6-4.7,9.4-3l0.3,0.2
						c3.4,1.7,4.8,5.9,3,9.3l-17.4,33.1C381.2,169.3,376.9,170.7,373.5,168.9z"/>
				</g>
				
					<path style="fill:none;stroke:#AFCFED;stroke-width:1.0917;stroke-linecap:round;stroke-linejoin:round;stroke-miterlimit:10;" d="
					M396.5,101.7c0,0,2.9-3.4,11.6,1c8.7,4.4,9.2,8.6,9.2,8.6"/>
				
					<path style="fill:none;stroke:#AFCFED;stroke-width:1.0917;stroke-linecap:round;stroke-linejoin:round;stroke-miterlimit:10;" d="
					M393,107.4c0,0,4.7,7.8,19.6,10.7"/>
			</g>
			<g>
				<path style="fill:#EBF5FF;stroke:#00225C;stroke-width:0.3944;stroke-miterlimit:10;" d="M455.4,127.9c0.2-4.5-8-8.5-18.3-8.8
					s-18.9,3-19.1,7.5c-0.1,2.6,2.6,5,6.8,6.7l-2.9,58.7c-0.3,6.2,4.5,11.4,10.7,11.7l0.6,0c6.2,0.2,11.5-4.7,11.8-10.8L448,134
					C452.4,132.7,455.3,130.5,455.4,127.9z"/>
				<g>
					<path style="fill:#FF9800;" d="M433.4,197.5l-0.4,0c-3.8-0.1-6.8-3.4-6.6-7.2l1.8-37.4c0.2-3.8,3.5-6.8,7.3-6.7l0.4,0
						c3.8,0.1,6.8,3.4,6.6,7.2l-1.8,37.4C440.5,194.6,437.3,197.6,433.4,197.5z"/>
				</g>
				
					<path style="fill:none;stroke:#AFCFED;stroke-width:1.0917;stroke-linecap:round;stroke-linejoin:round;stroke-miterlimit:10;" d="
					M426,126.8c0,0,1.1-4.3,10.9-4c9.8,0.4,12,3.9,12,3.9"/>
				
					<path style="fill:none;stroke:#AFCFED;stroke-width:1.0917;stroke-linecap:round;stroke-linejoin:round;stroke-miterlimit:10;" d="
					M425.2,132.7c0,0,7.5,5.1,22.3,1.5"/>
			</g>
		</g>
	</g>
</g>
</svg>
