<?xml version="1.0" encoding="utf-8"?>
<!-- Generator: Adobe Illustrator 22.0.0, SVG Export Plug-In . SVG Version: 6.00 Build 0)  -->
<svg version="1.1" id="Livello_1" xmlns="http://www.w3.org/2000/svg" xmlns:xlink="http://www.w3.org/1999/xlink" x="0px" y="0px"
	 width="471.7px" height="213.7px" viewBox="0 0 471.7 213.7" style="enable-background:new 0 0 471.7 213.7;" xml:space="preserve"
	>
<g>
	<linearGradient id="SVGID_1_" gradientUnits="userSpaceOnUse" x1="133.5098" y1="-70.3963" x2="338.1569" y2="284.063">
		<stop  offset="0" style="stop-color:#6B74BA"/>
		<stop  offset="0.6946" style="stop-color:#00225C"/>
	</linearGradient>
	<path style="fill:url(#SVGID_1_);" d="M458.3,212.8h-445c-6.6,0-12-5.4-12-12v-188c0-6.6,5.4-12,12-12h445c6.6,0,12,5.4,12,12v188
		C470.3,207.4,464.9,212.8,458.3,212.8z"/>
	<g>
		<g>
			<defs>
				<path id="SVGID_2_" d="M458.3,212.8h-444c-6.6,0-12-5.4-12-12v-188c0-6.6,5.4-12,12-12h444c6.6,0,12,5.4,12,12v188
					C470.3,207.4,464.9,212.8,458.3,212.8z"/>
			</defs>
			<clipPath id="SVGID_3_">
				<use xlink:href="#SVGID_2_"  style="overflow:visible;"/>
			</clipPath>
			<path style="opacity:0.68;clip-path:url(#SVGID_3_);fill:#FFFFFF;" d="M412.1-33.8c0,0-83.8,24.6-91.8,77.7
				c-8,53.1,13,67.8,5.5,78.2s-69,67.1-51.5,103.8s45.2,48.5,48.6,49.7s130.1-32.1,130.1-32.1l109.2-47.5l-63-166l-16.6-78.6
				L412.1-33.8z"/>
			
				<linearGradient id="SVGID_4_" gradientUnits="userSpaceOnUse" x1="349.1977" y1="-305.5521" x2="600.1648" y2="-305.5521" gradientTransform="matrix(0.9632 -0.2686 0.2686 0.9632 21.2259 549.1549)">
				<stop  offset="0" style="stop-color:#C66900"/>
				<stop  offset="1.112671e-02" style="stop-color:#DA7900"/>
				<stop  offset="2.518130e-02" style="stop-color:#EB8700"/>
				<stop  offset="4.269538e-02" style="stop-color:#F69100"/>
				<stop  offset="6.726032e-02" style="stop-color:#FD9600"/>
				<stop  offset="0.1355" style="stop-color:#FF9800"/>
				<stop  offset="1" style="stop-color:#FFC947"/>
			</linearGradient>
			<path style="opacity:0.68;clip-path:url(#SVGID_3_);fill:url(#SVGID_4_);" d="M433.7-27.4c0,0-83.8,24.6-91.8,77.7
				c-8,53.1,13,67.8,5.5,78.2s-69,67.1-51.5,103.8s45.2,48.5,48.6,49.7c3.4,1.1,130.1-32.1,130.1-32.1l76.2-35.8L491.1,40.7
				l-19.9-71.3L433.7-27.4z"/>
		</g>
		<g>
			<path style="opacity:0.4;fill:#C66900;" d="M318.7,182.8L423,205.2c3.9,0.9,7.8-1.6,8.5-5.6l4.4-26l11.5,28.8l6-1.6
				c1.8-0.3,2.8-2.1,2.1-3.8l-16.9-35.1l18.9-121.3L318.7,182.8z"/>
			<path style="fill:#3B498A;" d="M422.8,201.7l-103.5-18.7c-3-0.5-5-3.4-4.4-6.4l28.4-156.7c0.5-3,3.4-5,6.4-4.4l103.5,18.7
				c3,0.5,5,3.4,4.4,6.4l-28.4,156.7C428.7,200.2,425.8,202.2,422.8,201.7z"/>
			<path style="fill:#3B498A;" d="M319.3,182.9l74.5,13.5l30.3-167.5l-74.5-13.5c-3-0.5-5.9,1.4-6.4,4.4l-28.4,156.7
				C314.3,179.5,316.3,182.4,319.3,182.9z"/>
			<polygon style="fill:#00225C;" points="321,167.2 428.8,189.2 452.5,43.9 			"/>
			<g>
				
					<rect x="314.4" y="51.8" transform="matrix(0.1781 -0.984 0.984 0.1781 214.0252 467.3341)" style="fill:#CFD9E2;" width="144.7" height="107.5"/>
			</g>
			<g>
				<g>
					
						<rect x="313.9" y="51.7" transform="matrix(0.2202 -0.9754 0.9754 0.2202 198.3996 459.0071)" style="fill:#CFD9E2;" width="144.7" height="107.5"/>
				</g>
			</g>
			<g>
				<g>
					
						<rect x="313.9" y="51.7" transform="matrix(0.1316 -0.9913 0.9913 0.1316 230.9536 474.4695)" style="fill:#FFFFFF;" width="144.7" height="107.5"/>
				</g>
			</g>
			<g>
				<g>
					<path style="opacity:0.47;fill:#FFFFFF;" d="M375.3,154.2l-48.8-6.5l16.1-121.1L427,37.8l-11.4,85.6
						C413,143,394.9,156.8,375.3,154.2z"/>
				</g>
			</g>
			<g>
				<g>
					<path style="fill:#E5E5E5;" d="M351.8,60.1L350,72.9c-0.1,0.8,0.4,1.5,1.2,1.6l12.8,1.8c0.8,0.1,1.5-0.4,1.6-1.2l1.8-12.8
						c0.1-0.8-0.4-1.5-1.2-1.6l-12.8-1.8C352.6,58.8,351.9,59.3,351.8,60.1z M363.2,73.5L352.8,72l1.5-10.4l10.4,1.5L363.2,73.5z"/>
					<g>
						<path style="fill:#E5E5E5;" d="M408.5,81.8l-33.7-4.7c-0.6-0.1-1.1-0.7-1-1.3l0-0.3c0.1-0.6,0.7-1.1,1.3-1l33.7,4.7
							c0.6,0.1,1.1,0.7,1,1.3l0,0.3C409.7,81.5,409.1,81.9,408.5,81.8z"/>
						<path style="fill:#E5E5E5;" d="M430.4,79.6l-55.5-7.8c-0.3,0-0.5-0.3-0.5-0.6l0.2-1.5c0-0.3,0.3-0.5,0.6-0.5l55.5,7.8
							c0.3,0,0.5,0.3,0.5,0.6l-0.2,1.5C430.9,79.5,430.7,79.7,430.4,79.6z"/>
						<path style="fill:#E5E5E5;" d="M385.3,68l-8.5-1.2c-0.9-0.1-1.6-1-1.5-2l0.1-0.5c0.1-0.9,1-1.6,2-1.5l8.5,1.2
							c0.9,0.1,1.6,1,1.5,2l-0.1,0.5C387.1,67.5,386.2,68.2,385.3,68z"/>
					</g>
				</g>
				<g>
					<path style="fill:#E5E5E5;" d="M348.1,86.2l-1.8,12.8c-0.1,0.8,0.4,1.5,1.2,1.6l12.8,1.8c0.8,0.1,1.5-0.4,1.6-1.2l1.8-12.8
						c0.1-0.8-0.4-1.5-1.2-1.6L349.7,85C349,84.9,348.3,85.5,348.1,86.2z M359.5,99.6l-10.4-1.5l1.5-10.4l10.4,1.5L359.5,99.6z"/>
					<g>
						<path style="fill:#E5E5E5;" d="M404.8,108l-33.7-4.7c-0.6-0.1-1.1-0.7-1-1.3l0-0.3c0.1-0.6,0.7-1.1,1.3-1l33.7,4.7
							c0.6,0.1,1.1,0.7,1,1.3l0,0.3C406,107.6,405.5,108.1,404.8,108z"/>
						<path style="fill:#E5E5E5;" d="M426.7,105.8L371.2,98c-0.3,0-0.5-0.3-0.5-0.6l0.2-1.5c0-0.3,0.3-0.5,0.6-0.5l55.5,7.8
							c0.3,0,0.5,0.3,0.5,0.6l-0.2,1.5C427.3,105.6,427,105.8,426.7,105.8z"/>
						<path style="fill:#E5E5E5;" d="M381.6,94.2l-8.5-1.2c-0.9-0.1-1.6-1-1.5-2l0.1-0.5c0.1-0.9,1-1.6,2-1.5l8.5,1.2
							c0.9,0.1,1.6,1,1.5,2l-0.1,0.5C383.4,93.7,382.6,94.3,381.6,94.2z"/>
					</g>
				</g>
				<g>
					<path style="fill:#E5E5E5;" d="M344.5,112.4l-1.8,12.8c-0.1,0.8,0.4,1.5,1.2,1.6l12.8,1.8c0.8,0.1,1.5-0.4,1.6-1.2l1.8-12.8
						c0.1-0.8-0.4-1.5-1.2-1.6l-12.8-1.8C345.3,111.1,344.6,111.6,344.5,112.4z M355.8,125.8l-10.4-1.5l1.5-10.4l10.4,1.5
						L355.8,125.8z"/>
					<g>
						<path style="fill:#E5E5E5;" d="M401.2,134.1l-33.7-4.7c-0.6-0.1-1.1-0.7-1-1.3l0-0.3c0.1-0.6,0.7-1.1,1.3-1l33.7,4.7
							c0.6,0.1,1.1,0.7,1,1.3l0,0.3C402.4,133.8,401.8,134.2,401.2,134.1z"/>
						<path style="fill:#E5E5E5;" d="M423,131.9l-55.5-7.8c-0.3,0-0.5-0.3-0.5-0.6l0.2-1.5c0-0.3,0.3-0.5,0.6-0.5l55.5,7.8
							c0.3,0,0.5,0.3,0.5,0.6l-0.2,1.5C423.6,131.8,423.3,132,423,131.9z"/>
						<path style="fill:#E5E5E5;" d="M377.9,120.3l-8.5-1.2c-0.9-0.1-1.6-1-1.5-2l0.1-0.5c0.1-0.9,1-1.6,2-1.5l8.5,1.2
							c0.9,0.1,1.6,1,1.5,2l-0.1,0.5C379.8,119.8,378.9,120.5,377.9,120.3z"/>
					</g>
				</g>
				<g>
					<path style="fill:#E5E5E5;" d="M340.8,138.5l-1.8,12.8c-0.1,0.8,0.4,1.5,1.2,1.6l12.8,1.8c0.8,0.1,1.5-0.4,1.6-1.2l1.8-12.8
						c0.1-0.8-0.4-1.5-1.2-1.6l-12.8-1.8C341.6,137.2,340.9,137.8,340.8,138.5z M352.2,151.9l-10.4-1.5l1.5-10.4l10.4,1.5
						L352.2,151.9z"/>
					<g>
						<path style="fill:#E5E5E5;" d="M397.5,160.3l-33.7-4.7c-0.6-0.1-1.1-0.7-1-1.3l0-0.3c0.1-0.6,0.7-1.1,1.3-1l33.7,4.7
							c0.6,0.1,1.1,0.7,1,1.3l0,0.3C398.7,159.9,398.1,160.4,397.5,160.3z"/>
						<path style="fill:#E5E5E5;" d="M419.4,158.1l-55.5-7.8c-0.3,0-0.5-0.3-0.5-0.6l0.2-1.5c0-0.3,0.3-0.5,0.6-0.5l55.5,7.8
							c0.3,0,0.5,0.3,0.5,0.6l-0.2,1.5C419.9,157.9,419.7,158.1,419.4,158.1z"/>
						<path style="fill:#E5E5E5;" d="M374.3,146.5l-8.5-1.2c-0.9-0.1-1.6-1-1.5-2l0.1-0.5c0.1-0.9,1-1.6,2-1.5l8.5,1.2
							c0.9,0.1,1.6,1,1.5,2l-0.1,0.5C376.1,146,375.2,146.6,374.3,146.5z"/>
					</g>
				</g>
			</g>
			<path style="fill:#E5E5E5;" d="M411.9,58.5l-34.1-4.8c-0.5-0.1-0.9-0.6-0.8-1.1l0.7-4.7c0.1-0.5,0.6-0.9,1.1-0.8l34.1,4.8
				c0.5,0.1,0.9,0.6,0.8,1.1l-0.7,4.7C413,58.2,412.5,58.6,411.9,58.5z"/>
			
				<ellipse transform="matrix(0.9974 -7.145660e-02 7.145660e-02 0.9974 -6.1264 29.0019)" style="fill:#E4ECF4;" cx="402.3" cy="100.1" rx="26.9" ry="26.9"/>
			<path style="opacity:0.47;fill:#FFFFFF;" d="M415.6,123.4l5.6-42.4c-7.8-7.7-19.9-10.2-30.4-5.2c-13.4,6.4-19.2,22.4-12.8,35.8
				c6.4,13.4,22.4,19.2,35.8,12.8c0.6-0.3,1.2-0.6,1.8-0.9C415.6,123.5,415.6,123.4,415.6,123.4z"/>
			<path style="fill:#CAD6E0;" d="M377.5,30.3l-0.8,4.4c-0.3,1.4,0.7,2.8,2.1,3l39.1,7.1c1.4,0.3,2.8-0.7,3-2.1l0.8-4.4L377.5,30.3z
				"/>
			<path style="fill:#BABABA;" d="M420.2,32.2l-10.6-1.9c-0.7-0.1-1.1-0.8-1-1.5L409,27c0.8-4.2-1.9-8.4-6-9.3
				c-4.4-1-8.6,1.9-9.4,6.3l-0.4,2c-0.1,0.7-0.8,1.1-1.5,1l-10.6-1.9c-1.4-0.3-2.8,0.7-3,2.1l-1.1,6.1c-0.3,1.4,0.7,2.8,2.1,3
				l39.1,7.1c1.4,0.3,2.8-0.7,3-2.1l1.1-6.1C422.6,33.8,421.6,32.5,420.2,32.2z M398,24.8c0.3-1.8,2-3,3.8-2.7c1.8,0.3,3,2,2.7,3.8
				c-0.3,1.8-2,3-3.8,2.7l0,0C398.9,28.4,397.7,26.6,398,24.8z"/>
			<path style="opacity:0.2;fill:#FFFFFF;" d="M399.4,20.6c-0.6-1.5,0.6-3.1,2.1-3c0.4,0,0.7,0.1,1.1,0.1c0.5,0.1,1.1,0.2,1.5,0.4
				c1.5,0.6,1.8,2.5,0.7,3.6l-0.1,0.1c-0.6,0.6-1.5,0.8-2.4,0.5c-0.2-0.1-0.4-0.1-0.6-0.2c-0.1,0-0.3,0-0.4,0c-0.9,0-1.7-0.6-2-1.4
				L399.4,20.6z M412.2,33.1L412.2,33.1c0.2-1.3-0.6-2.5-1.9-2.7l-0.6-0.1l0,0l-3.5-0.6c-1.3-0.2-2.1-1.4-1.9-2.7l0.2-1
				c-0.3,1.8-2,3-3.8,2.7l0,0c-0.6-0.1-1.2-0.4-1.6-0.8c0,0,0,0,0,0c-0.6-0.5-0.9-1.1-1.1-1.9c0-0.2,0-0.3,0-0.5c0-0.1,0-0.2,0-0.4
				c0,0,0-0.1,0-0.1c0-0.1,0-0.1,0-0.2c0,0,0-0.1,0-0.1c0,0,0-0.1,0-0.1c0-0.1,0-0.2,0.1-0.3c0,0,0,0,0,0c0,0,0,0,0,0c0,0,0,0,0,0
				c0.1-0.2,0.1-0.3,0.2-0.5c0,0,0,0,0,0c0.1-0.2,0.2-0.3,0.3-0.4l0,0c0.4-0.7,0.3-1.5-0.1-2.2c-0.9-1.4-2.9-1.5-3.9-0.1
				c0,0,0,0,0,0c-0.1,0.1-0.1,0.2-0.2,0.3c-0.1,0.1-0.1,0.2-0.2,0.3c0,0.1-0.1,0.1-0.1,0.2c-0.1,0.1-0.1,0.3-0.2,0.4l0,0
				c0,0,0,0,0,0c0,0,0,0,0,0c0,0.1-0.1,0.2-0.1,0.2c-0.2,0.5-0.3,1-0.4,1.5l-0.4,2l0,0c0,0.1,0,0.2-0.1,0.2c0,0.1-0.1,0.2-0.1,0.2
				c-0.3,0.4-0.8,0.6-1.3,0.6l0,0l-10.6-1.9c-0.7-0.1-1.4,0-2,0.4c0,0,0,0,0,0c-0.2,0.1-0.4,0.3-0.6,0.5c-0.3,0.3-0.5,0.7-0.5,1.2
				l-0.4,2c-0.3,1.8,0.9,3.5,2.6,3.8l25.4,4.6C408.8,38.1,411.6,36.1,412.2,33.1z"/>
			<g>
				<path style="fill:#FFFFFF;" d="M380.7,28.1c-0.3-0.1-0.5-0.4-0.4-0.7c0.1-0.3,0.4-0.5,0.7-0.5l4.7,0.9c0.3,0.1,0.5,0.4,0.5,0.7
					c-0.1,0.3-0.4,0.5-0.7,0.5L380.7,28.1C380.8,28.1,380.8,28.1,380.7,28.1z"/>
			</g>
			<g>
				<path style="fill:#FFFFFF;" d="M389,29.6c-0.3-0.1-0.5-0.4-0.4-0.7c0.1-0.3,0.4-0.5,0.7-0.5l1.2,0.2c0.3,0.1,0.5,0.4,0.5,0.7
					c-0.1,0.3-0.4,0.5-0.7,0.5L389,29.6C389,29.6,389,29.6,389,29.6z"/>
			</g>
			<g>
				<g>
					<path style="fill:#CAD6E0;" d="M410.4,115l0.4-3c0.1-0.6-0.3-1.1-0.9-1.2l-33.8-4.7c0.4,1.8,1,3.7,1.9,5.5l31.3,4.4
						C409.8,116,410.3,115.6,410.4,115z"/>
					<path style="fill:#CAD6E0;" d="M375.7,95.8c-0.3,1.7-0.4,3.4-0.3,5.1l52.5,7.4c0.5-1.6,0.9-3.3,1.1-5L375.7,95.8z"/>
				</g>
			</g>
			<g>
				<path style="fill:#999999;" d="M410.9,125.3l8.3,17.6l5.3-2.5c-0.1-0.3-0.2-0.6-0.3-0.9l-7.5-15.8c-0.1-0.3-0.3-0.6-0.5-0.8
					L410.9,125.3z"/>
				
					<ellipse transform="matrix(0.9974 -7.145660e-02 7.145660e-02 0.9974 -6.1264 29.0019)" style="opacity:0.2;fill:#97C6FF;" cx="402.3" cy="100.1" rx="26.9" ry="26.9"/>
				<path style="fill:#0C171C;" d="M390.2,74.5c-14.2,6.7-20.2,23.6-13.5,37.8c6.7,14.2,23.6,20.2,37.8,13.5
					c14.2-6.7,20.2-23.6,13.5-37.8C421.2,73.8,404.3,67.8,390.2,74.5z M413.3,123.3c-12.8,6.1-28.1,0.6-34.2-12.2
					c-6.1-12.8-0.6-28.1,12.2-34.2c12.8-6.1,28.1-0.6,34.2,12.2C431.6,102,426.1,117.3,413.3,123.3z"/>
				<g>
					<path style="fill:#1E353A;" d="M379.1,111.1c-2.6-5.4-3.1-11.2-1.8-16.7c0.2-0.7-0.3-1.4-0.9-1.6l0,0c-0.7-0.2-1.5,0.2-1.7,1
						c-1.4,6-0.8,12.4,2,18.4c1.2,2.5,2.7,4.8,4.5,6.7c0.5,0.6,1.4,0.6,1.9,0.1l0,0c0.5-0.5,0.5-1.3,0.1-1.8
						C381.5,115.4,380.1,113.4,379.1,111.1z"/>
					<path style="fill:#1E353A;" d="M388.9,75.1c-4.6,2.5-8.3,6-10.8,10.2c-0.4,0.6-0.2,1.5,0.5,1.9l0,0c0.6,0.3,1.4,0.1,1.8-0.5
						c2.3-3.8,5.6-7,9.8-9.2c0.6-0.3,0.9-1.1,0.6-1.7l0,0C390.4,75,389.6,74.8,388.9,75.1z"/>
				</g>
				<path style="opacity:0.4;fill:#FFFFFF;" d="M394.7,85.3c-1.6-3.1-5.8-3.8-8.3-1.3c-6.7,6.6-8.9,16.9-4.6,25.9c0,0,0,0,0,0.1
					c1.5,3.1,5.5,3.8,8.1,1.5l0.1,0C397.2,104.7,399.2,94,394.7,85.3L394.7,85.3z"/>
				<path style="fill:#BABABA;" d="M422.2,137.9l-3.3,1.6c-1.4,0.6-3,0.1-3.6-1.3l-0.3-0.7c-0.6-1.4-0.1-3,1.3-3.6l3.3-1.6
					c1.4-0.6,3-0.1,3.6,1.3l0.3,0.7C424.2,135.7,423.6,137.3,422.2,137.9z"/>
				
					<rect x="416.3" y="134.4" transform="matrix(0.9039 -0.4277 0.4277 0.9039 -18.2777 191.8129)" style="fill:#DDDDDD;" width="2.9" height="4.5"/>
				
					<rect x="419.8" y="133.1" transform="matrix(0.9039 -0.4277 0.4277 0.9039 -17.4647 192.8542)" style="fill:#DDDDDD;" width="1.5" height="4.5"/>
				<path style="fill:#999999;" d="M421.1,132.6l1.9,4l1.3-0.6c0-0.1,0-0.1-0.1-0.2l-1.7-3.6c0-0.1-0.1-0.1-0.1-0.2L421.1,132.6z"/>
				<path style="fill:#BABABA;" d="M419.2,131.5l-3.3,1.6c-1.4,0.6-3,0.1-3.6-1.3l-0.3-0.7c-0.6-1.4-0.1-3,1.3-3.6l3.3-1.6
					c1.4-0.6,3-0.1,3.6,1.3l0.3,0.7C421.1,129.2,420.5,130.8,419.2,131.5z"/>
				
					<rect x="413.3" y="127.9" transform="matrix(0.9039 -0.4277 0.4277 0.9039 -15.8116 189.8879)" style="fill:#DDDDDD;" width="2.9" height="4.5"/>
				
					<rect x="416.7" y="126.6" transform="matrix(0.9039 -0.4277 0.4277 0.9039 -14.9986 190.9286)" style="fill:#DDDDDD;" width="1.5" height="4.5"/>
				<path style="fill:#999999;" d="M418,126.1l1.9,4l1.3-0.6c0-0.1,0-0.1-0.1-0.2l-1.7-3.6c0-0.1-0.1-0.1-0.1-0.2L418,126.1z"/>
				<path style="fill:#0C171C;" d="M452.8,199.9l-5.4,2.6c-0.7,0.3-1.5,0-1.8-0.7l-28.4-59.9c-0.3-0.7,0-1.5,0.7-1.8l5.4-2.6
					c0.7-0.3,1.5,0,1.8,0.7l28.4,59.9C453.8,198.7,453.5,199.6,452.8,199.9z"/>
				
					<rect x="437.4" y="135.5" transform="matrix(0.9039 -0.4277 0.4277 0.9039 -29.9509 203.6832)" style="fill:#060D0F;" width="2" height="66"/>
				
					<rect x="432.4" y="137.6" transform="matrix(0.9039 -0.4277 0.4277 0.9039 -31.2879 201.9745)" style="fill:#1E353A;" width="2.9" height="66"/>
			</g>
			<g>
				<g>
					<g>
						<g>
							<path style="fill:#00225C;" d="M358.3,71.7l-8.1-8.9c-0.1-0.1-0.1-0.2,0-0.3l3-2.8c0.1-0.1,0.2-0.1,0.3,0l5.1,5.6
								c0.1,0.1,0.2,0.1,0.3,0l10.2-9.2c0.1-0.1,0.2-0.1,0.3,0l2.8,3c0.1,0.1,0.1,0.2,0,0.3l-13.5,12.2
								C358.5,71.7,358.4,71.7,358.3,71.7z"/>
						</g>
					</g>
				</g>
			</g>
			<g>
				<g>
					<g>
						<g>
							<path style="fill:#00225C;" d="M354.2,97.9l-8.1-8.9c-0.1-0.1-0.1-0.2,0-0.3l3-2.8c0.1-0.1,0.2-0.1,0.3,0l5.1,5.6
								c0.1,0.1,0.2,0.1,0.3,0l10.2-9.2c0.1-0.1,0.2-0.1,0.3,0l2.8,3c0.1,0.1,0.1,0.2,0,0.3l-13.5,12.2
								C354.4,98,354.2,98,354.2,97.9z"/>
						</g>
					</g>
				</g>
			</g>
			<g>
				<g>
					<g>
						<g>
							<path style="fill:#00225C;" d="M350.1,124.1l-8.1-8.9c-0.1-0.1-0.1-0.2,0-0.3l3-2.8c0.1-0.1,0.2-0.1,0.3,0l5.1,5.6
								c0.1,0.1,0.2,0.1,0.3,0l10.2-9.2c0.1-0.1,0.2-0.1,0.3,0l2.8,3c0.1,0.1,0.1,0.2,0,0.3l-13.5,12.2
								C350.2,124.2,350.1,124.2,350.1,124.1z"/>
						</g>
					</g>
				</g>
			</g>
			<g>
				<g>
					<g>
						<g>
							<path style="fill:#00225C;" d="M346.4,150.5l-8.1-8.9c-0.1-0.1-0.1-0.2,0-0.3l3-2.8c0.1-0.1,0.2-0.1,0.3,0l5.1,5.6
								c0.1,0.1,0.2,0.1,0.3,0l10.2-9.2c0.1-0.1,0.2-0.1,0.3,0l2.8,3c0.1,0.1,0.1,0.2,0,0.3l-13.5,12.2
								C346.5,150.5,346.4,150.5,346.4,150.5z"/>
						</g>
					</g>
				</g>
			</g>
		</g>
	</g>
</g>
</svg>
