<?xml version="1.0" encoding="utf-8"?>
<!-- Generator: Adobe Illustrator 22.0.0, SVG Export Plug-In . SVG Version: 6.00 Build 0)  -->
<svg version="1.1" id="Livello_1" xmlns="http://www.w3.org/2000/svg" xmlns:xlink="http://www.w3.org/1999/xlink" x="0px" y="0px"
	 width="471.7px" height="213.7px" viewBox="0 0 471.7 213.7" style="enable-background:new 0 0 471.7 213.7;" xml:space="preserve"
	>
<g>
	<linearGradient id="SVGID_1_" gradientUnits="userSpaceOnUse" x1="133.5098" y1="-70.3963" x2="338.1569" y2="284.063">
		<stop  offset="0" style="stop-color:#6B74BA"/>
		<stop  offset="0.6946" style="stop-color:#00225C"/>
	</linearGradient>
	<path style="fill:url(#SVGID_1_);" d="M458.3,212.8h-445c-6.6,0-12-5.4-12-12v-188c0-6.6,5.4-12,12-12h445c6.6,0,12,5.4,12,12v188
		C470.3,207.4,464.9,212.8,458.3,212.8z"/>
	<g>
		<defs>
			<path id="SVGID_2_" d="M458.3,212.8h-444c-6.6,0-12-5.4-12-12v-188c0-6.6,5.4-12,12-12h444c6.6,0,12,5.4,12,12v188
				C470.3,207.4,464.9,212.8,458.3,212.8z"/>
		</defs>
		<clipPath id="SVGID_3_">
			<use xlink:href="#SVGID_2_"  style="overflow:visible;"/>
		</clipPath>
		<path style="opacity:0.68;clip-path:url(#SVGID_3_);fill:#FFFFFF;" d="M412.1-33.8c0,0-83.8,24.6-91.8,77.7
			c-8,53.1,13,67.8,5.5,78.2s-69,67.1-51.5,103.8s45.2,48.5,48.6,49.7s130.1-32.1,130.1-32.1l109.2-47.5l-63-166l-16.6-78.6
			L412.1-33.8z"/>
		
			<linearGradient id="SVGID_4_" gradientUnits="userSpaceOnUse" x1="349.1977" y1="-305.5521" x2="600.1648" y2="-305.5521" gradientTransform="matrix(0.9632 -0.2686 0.2686 0.9632 21.2259 549.1549)">
			<stop  offset="0" style="stop-color:#C66900"/>
			<stop  offset="1.112671e-02" style="stop-color:#DA7900"/>
			<stop  offset="2.518130e-02" style="stop-color:#EB8700"/>
			<stop  offset="4.269538e-02" style="stop-color:#F69100"/>
			<stop  offset="6.726032e-02" style="stop-color:#FD9600"/>
			<stop  offset="0.1355" style="stop-color:#FF9800"/>
			<stop  offset="1" style="stop-color:#FFC947"/>
		</linearGradient>
		<path style="opacity:0.68;clip-path:url(#SVGID_3_);fill:url(#SVGID_4_);" d="M433.7-27.4c0,0-83.8,24.6-91.8,77.7
			c-8,53.1,13,67.8,5.5,78.2s-69,67.1-51.5,103.8s45.2,48.5,48.6,49.7c3.4,1.1,130.1-32.1,130.1-32.1l76.2-35.8L491.1,40.7
			l-19.9-71.3L433.7-27.4z"/>
	</g>
	<g>
		<path style="opacity:0.4;fill:#C66900;" d="M340.9,31.9l-21,150.6c-0.2,1.2,0.6,2.2,1.8,2.4l111.9,15.6c1.2,0.2,2.2-0.6,2.4-1.8
			l21-150.6c0.2-1.2-0.6-2.2-1.8-2.4L343.3,30.1C342.1,29.9,341,30.7,340.9,31.9z"/>
		
			<rect x="304.9" y="51.6" transform="matrix(0.1123 -0.9937 0.9937 0.1123 230.6071 478.4351)" style="fill:#CFD9E2;" width="156.3" height="117.2"/>
		
			<rect x="308.4" y="50.6" transform="matrix(0.1535 -0.9882 0.9882 0.1535 219.3896 474.395)" style="fill:#CFD9E2;" width="156.3" height="117.2"/>
		
			<rect x="325.9" y="30.9" transform="matrix(0.968 0.251 -0.251 0.968 39.6776 -93.0087)" style="fill:#FFFFFF;" width="117.2" height="156.3"/>
		<g>
			<g>
				<g>
					<g>
						<g>
							<g>
								<g>
									
										<ellipse transform="matrix(0.2277 -0.9737 0.9737 0.2277 230.8908 398.4783)" style="fill:#00225C;" cx="366.6" cy="53.7" rx="12.9" ry="12.9"/>
								</g>
							</g>
						</g>
					</g>
				</g>
			</g>
			<g>
				<g>
					<g>
						<g>
							<path style="fill:#FFFFFF;" d="M363.3,59.6l-4.5-7.5c0-0.1,0-0.1,0-0.2l2.6-1.6c0.1,0,0.1,0,0.2,0l2.8,4.7
								c0,0.1,0.1,0.1,0.2,0l8.5-5.1c0.1,0,0.1,0,0.2,0l1.6,2.6c0,0.1,0,0.1,0,0.2l-11.3,6.8C363.5,59.7,363.4,59.7,363.3,59.6z"/>
						</g>
					</g>
				</g>
			</g>
		</g>
		<g>
			<g>
				<g>
					<g>
						<path style="fill:#E5E5E5;" d="M415.3,56l-22.8-5.9c-0.8-0.2-1.3-1.1-1.1-1.9l0,0c0.2-0.8,1.1-1.3,1.9-1.1l22.8,5.9
							c0.8,0.2,1.3,1.1,1.1,1.9l0,0C417,55.8,416.1,56.3,415.3,56z"/>
					</g>
					<g>
						<path style="fill:#E5E5E5;" d="M439.1,70.3l-48.6-12.6c-0.8-0.2-1.3-1.1-1.1-1.9l0,0c0.2-0.8,1.1-1.3,1.9-1.1l48.6,12.6
							c0.8,0.2,1.3,1.1,1.1,1.9l0,0C440.8,70,439.9,70.5,439.1,70.3z"/>
					</g>
					<g>
						<path style="fill:#E5E5E5;" d="M437.2,77.6L388.6,65c-0.8-0.2-1.3-1.1-1.1-1.9v0c0.2-0.8,1.1-1.3,1.9-1.1L438,74.6
							c0.8,0.2,1.3,1.1,1.1,1.9v0C438.9,77.3,438,77.8,437.2,77.6z"/>
					</g>
					<g>
						<path style="fill:#E5E5E5;" d="M435.3,84.9l-48.6-12.6c-0.8-0.2-1.3-1.1-1.1-1.9l0,0c0.2-0.8,1.1-1.3,1.9-1.1L436.1,82
							c0.8,0.2,1.3,1.1,1.1,1.9l0,0C437,84.7,436.1,85.2,435.3,84.9z"/>
					</g>
				</g>
				<g>
					<g>
						<path style="fill:#E5E5E5;" d="M407.1,87.7l-57.6-15c-0.8-0.2-1.3-1.1-1.1-1.9l0,0c0.2-0.8,1.1-1.3,1.9-1.1l57.6,15
							c0.8,0.2,1.3,1.1,1.1,1.9l0,0C408.7,87.5,407.9,87.9,407.1,87.7z"/>
					</g>
					<g>
						<path style="fill:#E5E5E5;" d="M430.9,102l-83.4-21.7c-0.8-0.2-1.3-1.1-1.1-1.9v0c0.2-0.8,1.1-1.3,1.9-1.1L431.7,99
							c0.8,0.2,1.3,1.1,1.1,1.9l0,0C432.6,101.7,431.7,102.2,430.9,102z"/>
					</g>
					<g>
						<path style="fill:#E5E5E5;" d="M429,109.3l-83.4-21.7c-0.8-0.2-1.3-1.1-1.1-1.9l0,0c0.2-0.8,1.1-1.3,1.9-1.1l83.4,21.7
							c0.8,0.2,1.3,1.1,1.1,1.9v0C430.6,109,429.8,109.5,429,109.3z"/>
					</g>
					<g>
						<path style="fill:#E5E5E5;" d="M427.1,116.6L343.7,95c-0.8-0.2-1.3-1.1-1.1-1.9l0,0c0.2-0.8,1.1-1.3,1.9-1.1l83.4,21.7
							c0.8,0.2,1.3,1.1,1.1,1.9l0,0C428.7,116.4,427.9,116.8,427.1,116.6z"/>
					</g>
				</g>
				<g>
					<g>
						<path style="fill:#E5E5E5;" d="M398.9,119.4l-57.6-15c-0.8-0.2-1.3-1.1-1.1-1.9l0,0c0.2-0.8,1.1-1.3,1.9-1.1l57.6,15
							c0.8,0.2,1.3,1.1,1.1,1.9l0,0C400.5,119.1,399.7,119.6,398.9,119.4z"/>
					</g>
					<g>
						<path style="fill:#E5E5E5;" d="M422.7,133.6L339.3,112c-0.8-0.2-1.3-1.1-1.1-1.9l0,0c0.2-0.8,1.1-1.3,1.9-1.1l83.4,21.7
							c0.8,0.2,1.3,1.1,1.1,1.9v0C424.3,133.4,423.5,133.9,422.7,133.6z"/>
					</g>
					<g>
						<path style="fill:#E5E5E5;" d="M420.8,141l-83.4-21.7c-0.8-0.2-1.3-1.1-1.1-1.9l0,0c0.2-0.8,1.1-1.3,1.9-1.1l83.4,21.7
							c0.8,0.2,1.3,1.1,1.1,1.9l0,0C422.4,140.7,421.6,141.2,420.8,141z"/>
					</g>
					<g>
						<path style="fill:#E5E5E5;" d="M418.9,148.3l-83.4-21.7c-0.8-0.2-1.3-1.1-1.1-1.9l0,0c0.2-0.8,1.1-1.3,1.9-1.1l83.4,21.7
							c0.8,0.2,1.3,1.1,1.1,1.9l0,0C420.5,148,419.7,148.5,418.9,148.3z"/>
					</g>
				</g>
				<g>
					<g>
						<path style="fill:#E5E5E5;" d="M390.6,151.1l-57.6-15c-0.8-0.2-1.3-1.1-1.1-1.9l0,0c0.2-0.8,1.1-1.3,1.9-1.1l57.6,15
							c0.8,0.2,1.3,1.1,1.1,1.9l0,0C392.3,150.8,391.5,151.3,390.6,151.1z"/>
					</g>
					<g>
						<path style="fill:#E5E5E5;" d="M414.5,165.3l-83.4-21.7c-0.8-0.2-1.3-1.1-1.1-1.9v0c0.2-0.8,1.1-1.3,1.9-1.1l83.4,21.7
							c0.8,0.2,1.3,1.1,1.1,1.9v0C416.1,165.1,415.3,165.6,414.5,165.3z"/>
					</g>
					<g>
						<path style="fill:#E5E5E5;" d="M412.6,172.7L329.2,151c-0.8-0.2-1.3-1.1-1.1-1.9l0,0c0.2-0.8,1.1-1.3,1.9-1.1l83.4,21.7
							c0.8,0.2,1.3,1.1,1.1,1.9l0,0C414.2,172.4,413.4,172.9,412.6,172.7z"/>
					</g>
					<g>
						<path style="fill:#E5E5E5;" d="M410.6,180l-83.4-21.7c-0.8-0.2-1.3-1.1-1.1-1.9l0,0c0.2-0.8,1.1-1.3,1.9-1.1l83.4,21.7
							c0.8,0.2,1.3,1.1,1.1,1.9l0,0C412.3,179.7,411.5,180.2,410.6,180z"/>
					</g>
				</g>
			</g>
		</g>
		<g>
			<path style="fill:#353D44;" d="M382.3,173.7L382.3,173.7c-0.2-0.1-0.3-0.4-0.2-0.6l1.6-3.3c0.1-0.2,0.4-0.3,0.6-0.2l0,0
				c0.2,0.1,0.3,0.4,0.2,0.6l-1.6,3.3C382.8,173.7,382.6,173.8,382.3,173.7z"/>
		</g>
		<g>
			<g>
				<path style="fill:#2D353A;" d="M420.3,98.5l-2-0.9c-0.7-0.3-1-1.1-0.7-1.8l4.4-8.9c0.3-0.7,1.2-1,1.9-0.6l2,0.9
					c0.7,0.3,1,1.1,0.7,1.8l-4.4,8.9C421.8,98.6,421,98.9,420.3,98.5z"/>
			</g>
		</g>
		<g>
			<g>
				<path style="fill:#1E353A;" d="M422.2,98.9l-5.5-2.5c-0.6-0.3-0.9-1-0.6-1.6l2.3-4.7c0.3-0.6,1-0.9,1.7-0.6l5.5,2.5
					c0.6,0.3,0.9,1,0.6,1.6l-2.3,4.7C423.6,99,422.8,99.2,422.2,98.9z"/>
			</g>
		</g>
		<g>
			<g>
				<polygon style="fill:#353D44;" points="384.3,164.9 382.1,171.7 384.1,172.6 388.1,166.7 				"/>
			</g>
		</g>
		<g>
			<g>
				<polygon style="fill:#1E353A;" points="421,95.6 421,95.6 416.7,93.6 394.2,139.5 382.6,166.7 385.4,168 385.4,168 387.5,169 
					401.9,143.1 424.5,97.2 				"/>
			</g>
		</g>
		<g>
			<g>
				<polygon style="fill:#060D0F;" points="422,96 399.4,141.9 385.4,168 387.5,169 401.9,143.1 424.5,97.2 				"/>
			</g>
		</g>
		<g>
			<polygon style="fill:#DDDDDD;" points="384.3,162.8 382.6,166.7 385.4,168 385.4,168 385.5,168 385.5,168 387.5,169 389.5,165.2 
							"/>
		</g>
		<g>
			<g>
				<polygon style="fill:#DDDDDD;" points="403.8,139.2 396.1,135.7 394.2,139.5 401.9,143.1 				"/>
			</g>
		</g>
		<g>
			<g>
				<polygon style="fill:#999999;" points="401.9,143.1 399.4,141.9 401.3,138.1 403.8,139.2 				"/>
			</g>
		</g>
		<g>
			<polygon style="fill:#999999;" points="387.4,164.2 385.4,168 387.5,169 389.5,165.2 			"/>
		</g>
		<g>
			<g>
				<polygon style="fill:#999999;" points="425.1,91.8 420.6,89.8 421.4,88 426,90.1 				"/>
			</g>
		</g>
		<g>
			<g>
				<path style="fill:#DDDDDD;" d="M406.9,123.9l-0.2-0.1c-0.7-0.3-1-1.2-0.7-1.9l-0.8,1.7c-0.4,0.7-0.1,1.6,0.7,1.9l0.2,0.1
					c0.7,0.3,1.6,0,1.9-0.7l0.8-1.7C408.5,123.9,407.6,124.3,406.9,123.9z"/>
			</g>
		</g>
		<g>
			<path style="fill:#BABABA;" d="M418.8,102.1l-1-0.5l-0.1-0.1l-1-0.5c-0.2-0.1-0.4,0-0.5,0.2l-0.5,1l-9.7,19.8
				c-0.3,0.7,0,1.6,0.7,1.9l0.1,0.1c0.7,0.3,1.6,0,2-0.7l9.7-19.8l0.5-1C419,102.4,419,102.2,418.8,102.1z"/>
		</g>
		<g>
			<g>
				<path style="fill:#DDDDDD;" d="M407.7,122.4l-0.2-0.1c-0.7-0.3-1-1.2-0.7-1.9l-0.8,1.7c-0.4,0.7-0.1,1.6,0.7,1.9l0.2,0.1
					c0.7,0.3,1.6,0,1.9-0.7l0.8-1.7C409.2,122.4,408.4,122.7,407.7,122.4z"/>
			</g>
		</g>
	</g>
</g>
</svg>
