<?xml version="1.0" encoding="utf-8"?>
<!-- Generator: Adobe Illustrator 22.0.1, SVG Export Plug-In . SVG Version: 6.00 Build 0)  -->
<svg version="1.1" id="Livello_1" xmlns="http://www.w3.org/2000/svg" xmlns:xlink="http://www.w3.org/1999/xlink" x="0px" y="0px"
	 viewBox="0 0 150 150" style="enable-background:new 0 0 150 150;" xml:space="preserve">
<g>
	<path id="path1419" style="fill:#FFFFFF;" d="M43.1,44.2v18.8h18.8V44.2H43.1z M65.7,44.2v18.8h18.8V44.2H65.7z M88.3,44.2v18.8
		h18.8V44.2H88.3z M20.5,66.8v18.8h18.8V66.8H20.5z M43.1,66.8v18.8h18.8V66.8H43.1z M65.7,66.8v18.8h18.8V66.8H65.7z M88.3,66.8
		v18.8h18.8V66.8H88.3z M20.5,89.4v18.8h18.8V89.4H20.5z M43.1,89.4v18.8h18.8V89.4H43.1z M65.7,89.4v18.8h18.8V89.4H65.7z
		 M110.4,44.2v18.8h18.8V44.2H110.4z M110.4,66.8v18.8h18.8V66.8H110.4z M110.4,89.4v18.8h18.8V89.4H110.4z M88.1,89.2V108h18.8
		V89.2H88.1z M20.5,111.1v18.8h18.8v-18.8H20.5z M43.1,111.1v18.8h18.8v-18.8H43.1z M65.7,111.1v18.8h18.8v-18.8H65.7z M88.3,111.1
		v18.8h18.8v-18.8H88.3z"/>
	<g>
		<rect x="84.3" y="19.3" style="fill:none;" width="8.3" height="5.8"/>
		<rect x="112.2" y="14.3" style="fill:none;" width="8.3" height="5"/>
		<path style="fill:#FFFFFF;" d="M112.2,14.3h8.3v5h5.8v-7.9c0-1.6-1.3-2.9-2.9-2.9h-14c-1.6,0-2.9,1.3-2.9,2.9v7.9h5.8V14.3z"/>
		<rect x="28.6" y="19.3" style="fill:none;" width="8.3" height="5.8"/>
		<rect x="84.3" y="14.3" style="fill:none;" width="8.3" height="5"/>
		<path style="fill:#FFFFFF;" d="M84.3,14.3h8.3v5h5.8v-7.9c0-1.6-1.3-2.9-2.9-2.9h-14c-1.6,0-2.9,1.3-2.9,2.9v7.9h5.8V14.3z"/>
		<rect x="28.6" y="14.3" style="fill:none;" width="8.3" height="5"/>
		<rect x="56.5" y="19.3" style="fill:none;" width="8.3" height="5.8"/>
		<path style="fill:#FFFFFF;" d="M28.6,14.3h8.3v5h5.8v-7.9c0-1.6-1.3-2.9-2.9-2.9h-14c-1.6,0-2.9,1.3-2.9,2.9v7.9h5.8V14.3z"/>
		<rect x="84.3" y="25.1" style="fill:none;" width="8.3" height="6.3"/>
		<rect x="112.2" y="25.1" style="fill:none;" width="8.3" height="6.3"/>
		<path style="fill:none;" d="M123.3,37.1h-14c-1.6,0-2.9-1.3-2.9-2.9v-9.2h-8v9.2c0,1.6-1.3,2.9-2.9,2.9h-14
			c-1.6,0-2.9-1.3-2.9-2.9v-9.2h-8v9.2c0,1.6-1.3,2.9-2.9,2.9h-14c-1.6,0-2.9-1.3-2.9-2.9v-9.2h-8v9.2c0,1.6-1.3,2.9-2.9,2.9h-14
			c-1.6,0-2.9-1.3-2.9-2.9v-9.2H15v111.2h120.5V25.1h-9.3v9.2C126.2,35.8,124.9,37.1,123.3,37.1z"/>
		<path style="fill:#FFFFFF;" d="M120.4,31.4h-8.3v-6.3h-5.8v9.2c0,1.6,1.3,2.9,2.9,2.9h14c1.6,0,2.9-1.3,2.9-2.9v-9.2h-5.8V31.4z"
			/>
		<path style="fill:#FFFFFF;" d="M81.4,37.1h14c1.6,0,2.9-1.3,2.9-2.9v-9.2h-5.8v6.3h-8.3v-6.3h-5.8v9.2
			C78.6,35.8,79.8,37.1,81.4,37.1z"/>
		<rect x="28.6" y="25.1" style="fill:none;" width="8.3" height="6.3"/>
		<path style="fill:#FFFFFF;" d="M25.7,37.1h14c1.6,0,2.9-1.3,2.9-2.9v-9.2h-5.8v6.3h-8.3v-6.3h-5.8v9.2
			C22.9,35.8,24.1,37.1,25.7,37.1z"/>
		<rect x="56.5" y="14.3" style="fill:none;" width="8.3" height="5"/>
		<rect x="56.5" y="25.1" style="fill:none;" width="8.3" height="6.3"/>
		<rect x="42.7" y="19.3" style="fill:#FFFFFF;" width="8" height="5.8"/>
		<rect x="98.4" y="19.3" style="fill:#FFFFFF;" width="8" height="5.8"/>
		<path style="fill:#FFFFFF;" d="M138.4,19.3h-12.2v5.8h9.3v111.2H15V25.1h7.9v-5.8H12.1c-1.6,0-2.9,1.3-2.9,2.9v116.9
			c0,1.6,1.3,2.9,2.9,2.9h126.3c1.6,0,2.9-1.3,2.9-2.9V22.2C141.3,20.6,140,19.3,138.4,19.3z"/>
		<rect x="120.4" y="19.3" style="fill:#FFFFFF;" width="5.8" height="5.8"/>
		<rect x="106.4" y="19.3" style="fill:#FFFFFF;" width="5.8" height="5.8"/>
		<rect x="70.5" y="19.3" style="fill:#FFFFFF;" width="8" height="5.8"/>
		<rect x="78.6" y="19.3" style="fill:#FFFFFF;" width="5.8" height="5.8"/>
		<rect x="92.6" y="19.3" style="fill:#FFFFFF;" width="5.8" height="5.8"/>
		<rect x="36.9" y="19.3" style="fill:#FFFFFF;" width="5.8" height="5.8"/>
		<rect x="22.9" y="19.3" style="fill:#FFFFFF;" width="5.8" height="5.8"/>
		<path style="fill:#FFFFFF;" d="M53.6,37.1h14c1.6,0,2.9-1.3,2.9-2.9v-9.2h-5.8v6.3h-8.3v-6.3h-5.8v9.2
			C50.7,35.8,52,37.1,53.6,37.1z"/>
		<path style="fill:#FFFFFF;" d="M56.5,14.3h8.3v5h5.8v-7.9c0-1.6-1.3-2.9-2.9-2.9h-14c-1.6,0-2.9,1.3-2.9,2.9v7.9h5.8V14.3z"/>
		<rect x="64.7" y="19.3" style="fill:#FFFFFF;" width="5.8" height="5.8"/>
		<rect x="50.7" y="19.3" style="fill:#FFFFFF;" width="5.8" height="5.8"/>
	</g>
</g>
</svg>
