<?xml version="1.0" encoding="utf-8"?>
<!-- Generator: Adobe Illustrator 22.0.1, SVG Export Plug-In . SVG Version: 6.00 Build 0)  -->
<svg version="1.1" id="Livello_1" xmlns="http://www.w3.org/2000/svg" xmlns:xlink="http://www.w3.org/1999/xlink" x="0px" y="0px"
	 viewBox="0 0 150 150" style="enable-background:new 0 0 150 150;" xml:space="preserve">
<path style="fill:#FFFFFF;" d="M65,20.8l4.4,1.6l-36,99.7c-3.7,10.2,1.2,21.8,11.4,25.5c10.9,3.9,21.8-1.2,25.7-12.1l36-99.7
	l4.4,1.6l7.1-19.6L72.1,1.1L65,20.8z M64.2,132.4l-0.3,0.7L64.2,132.4z M64.9,130.2l22.9-63.3l-16-5.8l-23.6,65.5
	c-1.3,3.6-0.6,6.3,1.7,8.9c3.6,3.8,10.2,3.7,13.5-0.9c-2.6,4.8-7.5,7.2-12.9,6c-6.1-1.4-10.9-6.4-10.2-12.7
	c-0.2-1.7,0.3-3.2,0.8-4.6l36-99.7l23.3,8.4C100.4,31.9,64.9,130.2,64.9,130.2z"/>
</svg>
