<?xml version="1.0" encoding="utf-8"?>
<!-- Generator: Adobe Illustrator 22.0.1, SVG Export Plug-In . SVG Version: 6.00 Build 0)  -->
<svg version="1.1" id="Livello_1" xmlns="http://www.w3.org/2000/svg" xmlns:xlink="http://www.w3.org/1999/xlink" x="0px" y="0px"
	 viewBox="0 0 150 150" style="enable-background:new 0 0 150 150;" xml:space="preserve">
<g>
	<title>Layer 1</title>
	<path id="svg_1" style="fill:#FFFFFF;" d="M121.8,20.4h-16.5c-0.9-3.5-4-6.1-7.8-6.1H85.2c0.1-0.7,0.2-1.3,0.2-2
		c0-5.6-4.5-10.1-10.1-10.1c-5.6,0-10.1,4.5-10.1,10.1c0,0.7,0.1,1.4,0.2,2H53.1c-3.8,0-6.9,2.6-7.8,6.1H28.8
		c-3.4,0-6.1,2.7-6.1,6.1v115.2c0,3.4,2.7,6.1,6.1,6.1h93c3.3,0,6.1-2.7,6.1-6.1V26.5C127.9,23.2,125.2,20.4,121.8,20.4z M69.3,12.4
		c0-3.3,2.7-6.1,6.1-6.1s6.1,2.7,6.1,6.1c0,0.7-0.1,1.4-0.4,2c-0.8,2.3-3.1,4-5.7,4c-2.6,0-4.9-1.7-5.7-4
		C69.4,13.7,69.3,13.1,69.3,12.4z M119.8,135.6H30.9V28.5H45v2v4h60.6v-4v-2h14.1L119.8,135.6L119.8,135.6z"/>
	<polygon id="svg_2" points="71.3,111.4 71.3,111.4 71.3,111.4 	"/>
	<polygon id="svg_3" points="71.3,99.3 71.3,99.3 71.3,99.3 	"/>
	<polygon id="svg_4" points="38.9,123.5 38.9,123.5 38.9,123.5 	"/>
	<path id="svg_26_2_" style="fill:#FFFFFF;" d="M67.8,109.8L40.7,82.7l14.1-14.1l12.9,13.4l27.9-28.4l14.1,14.1L67.8,109.8z"/>
</g>
</svg>
