<?xml version="1.0" encoding="utf-8"?>
<!-- Generator: Adobe Illustrator 22.0.1, SVG Export Plug-In . SVG Version: 6.00 Build 0)  -->
<svg version="1.1" id="Livello_1" xmlns="http://www.w3.org/2000/svg" xmlns:xlink="http://www.w3.org/1999/xlink" x="0px" y="0px"
	 viewBox="0 0 150 150" style="enable-background:new 0 0 150 150;" xml:space="preserve">
<g transform="translate(0 -252.36)">
	<defs>
		<filter id="Adobe_OpacityMaskFilter" filterUnits="userSpaceOnUse" x="16.9" y="254.3" width="117.4" height="146.1">
			<feColorMatrix  type="matrix" values="1 0 0 0 0  0 1 0 0 0  0 0 1 0 0  0 0 0 1 0"/>
		</filter>
	</defs>
	<mask maskUnits="userSpaceOnUse" x="16.9" y="254.3" width="117.4" height="146.1" id="a_2_">
		
			<circle color-rendering="auto" shape-rendering="auto" image-rendering="auto" style="fill:#FFFFFF;filter:url(#Adobe_OpacityMaskFilter);" cx="103.5" cy="327.4" r="142.3"/>
	</mask>
	<path color-rendering="auto" shape-rendering="auto" image-rendering="auto" style="mask:url(#a_2_);fill:#FFFFFF;" d="M16.9,254.3
		v134.8h75.3v-7.5H23.5V261.8h104.3v119.7h-10.1v7.5h16.7V254.3L16.9,254.3L16.9,254.3z M29.9,268v7.9h76.2V268H29.9z M29.9,278.8
		v7.9h81.5v-7.9H29.9z M29.9,289.5v7.9h58v-7.9H29.9z M29.9,300.2v7.9h74.5v-7.9H29.9z M29.9,311v7.9h78.8V311H29.9z M29.9,321.7
		v7.9h88.5v-7.9H29.9L29.9,321.7z M29.9,332.4v7.9h85.4v-7.9H29.9L29.9,332.4z M103.2,347.8l-1.3,3.6l-2.8-2.6l-0.4,3.9l-3.4-1.8
		l0.5,3.2l-3.1-0.9l1.7,4.1l-4.5,0.2l2.1,2.5l-3.1,0.8l3,2.4l-3.4,1.9l3.6,1.5l-2.8,2.7l3.2,0.5l-1.8,2.7l4.5-0.3l-1.2,4.3l3-1.2
		l-0.2,3.2l2.3-1.5v23.5l5.9-6.9l5.9,6.9v-23.5l2.3,1.6l-0.2-3.2l3,1.2l-1.1-3.7l3.8,0.5l-2-3.3l3.8-0.6l-2.3-2.3l3-1.1l-3.8-2.4
		l3.5-2.8l-3.1-0.8l2.1-2.5l-3.9-0.2l1.6-3.5l-3.8,0.9l0.7-3.8l-2.9,1.5l-0.1-3.2l-3.4,2.9l-1.5-4.2l-1.7,2.7L103.2,347.8
		L103.2,347.8z M104.9,353.8c5.7,0,10.4,4.6,10.4,10.4c0,5.7-4.6,10.4-10.4,10.4c0,0,0,0,0,0c-5.7,0-10.4-4.6-10.4-10.4
		C94.5,358.5,99.2,353.8,104.9,353.8L104.9,353.8z M104.9,354.7c-5.2,0-9.5,4.2-9.5,9.5c0,5.2,4.2,9.5,9.5,9.5
		c5.2,0,9.5-4.2,9.5-9.5c0,0,0,0,0,0C114.4,359,110.2,354.7,104.9,354.7L104.9,354.7z"/>
</g>
</svg>
