<?xml version="1.0" encoding="utf-8"?>
<!-- Generator: Adobe Illustrator 22.0.1, SVG Export Plug-In . SVG Version: 6.00 Build 0)  -->
<svg version="1.1" id="Livello_1" xmlns="http://www.w3.org/2000/svg" xmlns:xlink="http://www.w3.org/1999/xlink" x="0px" y="0px"
	 viewBox="0 0 150 150" style="enable-background:new 0 0 150 150;" xml:space="preserve">
<g>
	<path style="fill:#FFFFFF;" d="M120.7,130.3h-16.1c9.3-10.1,14.5-23,14.5-36.7c0-18.4-9.1-35.3-24.5-45.4l16.3-28.2
		c0.2-0.4,0.3-0.8,0.1-1.2c-0.1-0.4-0.4-0.7-0.7-1l-1.3-0.7l3.4-6c0.4-0.7,0.2-1.7-0.6-2.1l-11-6.4c-0.4-0.2-0.8-0.3-1.2-0.2
		c-0.4,0.1-0.8,0.4-1,0.7l-3.4,5.9l-1.4-0.8c-0.4-0.2-0.8-0.3-1.2-0.2c-0.4,0.1-0.8,0.4-1,0.7L49.8,81.5c-0.4,0.7-0.2,1.7,0.6,2.2
		l2.3,1.3l-4.4,7.6C48,93,48,93.4,48.1,93.8c0.1,0.4,0.4,0.7,0.7,1l9.2,5.3c0.4,0.2,0.8,0.3,1.2,0.2c0.4-0.1,0.7-0.4,1-0.7l4.4-7.6
		l2.3,1.3c0.4,0.2,0.8,0.3,1.2,0.2c0.4-0.1,0.8-0.4,1-0.7l16.8-29c9.8,6.9,15.6,18,15.6,30c0,20.2-16.5,36.7-36.7,36.7H33.9
		c-0.9,0-1.6,0.7-1.6,1.6v14.5c0,0.9,0.7,1.6,1.6,1.6h86.8c0.9,0,1.6-0.7,1.6-1.6v-14.5C122.3,131.1,121.6,130.3,120.7,130.3z"/>
	<path style="fill:#FFFFFF;" d="M64.8,121.9c0.6,0,1.1-0.3,1.4-0.8l3.5-6.1c0.2-0.3,0.3-0.8,0.1-1.2c-0.1-0.4-0.4-0.7-0.7-1
		L33.7,92.5C33,92,32,92.3,31.6,93.1l-3.5,6.1c-0.2,0.4-0.3,0.8-0.2,1.2c0.1,0.4,0.4,0.7,0.7,1L64,121.7
		C64.2,121.8,64.5,121.9,64.8,121.9z"/>
</g>
</svg>
