<?xml version="1.0" encoding="utf-8"?>
<!-- Generator: Adobe Illustrator 22.0.1, SVG Export Plug-In . SVG Version: 6.00 Build 0)  -->
<svg version="1.1" id="Livello_1" xmlns="http://www.w3.org/2000/svg" xmlns:xlink="http://www.w3.org/1999/xlink" x="0px" y="0px"
	 viewBox="0 0 150 150" style="enable-background:new 0 0 150 150;" xml:space="preserve">
<g>
	<g>
		<rect x="17.3" y="27.7" style="fill:#FFFFFF;" width="67.8" height="10.5"/>
		<rect x="17.3" y="44.8" style="fill:#FFFFFF;" width="72.4" height="10.5"/>
		<rect x="17.3" y="61.9" style="fill:#FFFFFF;" width="51.5" height="10.5"/>
		<rect x="17.3" y="79" style="fill:#FFFFFF;" width="66.2" height="10.5"/>
		<polygon style="fill:#FFFFFF;" points="17.3,96 17.3,106.6 96,106.6 96,96 17.3,96 		"/>
		<polygon style="fill:#FFFFFF;" points="17.3,113.1 17.3,123.7 93.3,123.7 93.3,113.1 17.3,113.1 		"/>
	</g>
	<g>
		<path style="fill:none;" d="M84.7,53.5L84.7,53.5c4.5-4.5,10.2-7,16.1-7.7V11.1H8.8v127.7h91.9V99.6c-5.9-0.7-11.6-3.2-16.1-7.7
			C74.1,81.3,74.1,64.1,84.7,53.5z"/>
		<path style="fill:none;" d="M115.3,84.1c6.4-6.4,6.4-16.5,0-22.9c-2.4-2.4-5.4-3.9-8.6-4.5v31.9C109.8,88,112.8,86.6,115.3,84.1z"
			/>
		<path style="fill:none;" d="M92.4,61.2c-6.4,6.4-6.4,16.5,0,22.9c2.4,2.4,5.3,3.9,8.3,4.5V56.8C97.7,57.4,94.8,58.9,92.4,61.2z"/>
		<path style="fill:#FFFFFF;" d="M100.7,99.6v39.3H8.8V11.1h91.9v34.6c2-0.2,4-0.2,6,0V8.1c0-1.7-1.3-3-3-3H5.8c-1.7,0-3,1.3-3,3
			v133.7c0,1.7,1.3,3,3,3h97.9c1.7,0,3-1.3,3-3V99.6C104.7,99.8,102.7,99.8,100.7,99.6z"/>
		<path style="fill:#FFFFFF;" d="M92.4,61.2c2.4-2.4,5.3-3.9,8.3-4.5v-11c-5.9,0.7-11.6,3.2-16.1,7.7l0,0
			c-10.5,10.5-10.6,27.8,0,38.4c4.5,4.5,10.2,7.1,16.1,7.7v-11c-3-0.6-5.9-2.1-8.3-4.5C86,77.8,86,67.6,92.4,61.2z"/>
		<path style="fill:#FFFFFF;" d="M145.2,104.7l-18.3-17.8c6.4-10.4,5.1-24.4-3.9-33.4c-4.5-4.5-10.3-7.1-16.3-7.7v11
			c3.1,0.6,6.1,2.1,8.6,4.5c6.4,6.4,6.4,16.5,0,22.9c-2.4,2.4-5.4,3.9-8.6,4.5v11c3.9-0.4,7.6-1.6,11-3.7l18.6,18.1
			c2.6,2.5,6.6,2.4,9-0.2C147.9,111.2,147.8,107.2,145.2,104.7z"/>
		<path style="fill:#FFFFFF;" d="M100.7,88.6v11c2,0.2,4,0.2,6,0v-11C104.7,89,102.7,89,100.7,88.6z"/>
		<path style="fill:#FFFFFF;" d="M100.7,45.8v11c2-0.4,4-0.4,6,0v-11C104.7,45.5,102.7,45.6,100.7,45.8z"/>
	</g>
</g>
</svg>
