<?xml version="1.0" encoding="utf-8"?>
<!-- Generator: Adobe Illustrator 22.0.1, SVG Export Plug-In . SVG Version: 6.00 Build 0)  -->
<svg version="1.1" id="Livello_1" xmlns="http://www.w3.org/2000/svg" xmlns:xlink="http://www.w3.org/1999/xlink" x="0px" y="0px"
	 viewBox="0 0 150 150" style="enable-background:new 0 0 150 150;" xml:space="preserve">
<g>
	<g>
		<path style="fill:#FFFFFF;" d="M143.7,132.4H6.3c-1.8,0-3.3-1.5-3.3-3.3V47.4c0-1.8,1.5-3.3,3.3-3.3h26.5V21.8
			c0-1.8,1.5-3.3,3.3-3.3h77.6c1.8,0,3.3,1.5,3.3,3.3v22.4h26.5c1.8,0,3.3,1.5,3.3,3.3v81.6C147,130.9,145.5,132.4,143.7,132.4z
			 M9.7,125.7h130.7v-75h-26.5c-1.8,0-3.3-1.5-3.3-3.3V25.1h-71v22.4c0,1.8-1.5,3.3-3.3,3.3H9.7V125.7z"/>
	</g>
	<g>
		<path style="fill:#FFFFFF;" d="M100.3,107.5h-9.8c5.7-6.2,8.8-14.1,8.8-22.4c0-11.3-5.6-21.6-15-27.7l10-17.2
			c0.1-0.2,0.2-0.5,0.1-0.7c-0.1-0.2-0.2-0.5-0.4-0.6l-0.8-0.5l2.1-3.6c0.3-0.5,0.1-1-0.4-1.3l-6.7-3.9c-0.2-0.1-0.5-0.2-0.7-0.1
			c-0.2,0.1-0.5,0.2-0.6,0.5l-2.1,3.6l-0.9-0.5c-0.2-0.1-0.5-0.2-0.7-0.1c-0.3,0.1-0.5,0.2-0.6,0.5L56.9,77.6
			c-0.3,0.5-0.1,1.1,0.4,1.3l1.4,0.8L56,84.4c-0.1,0.2-0.2,0.5-0.1,0.7c0.1,0.2,0.2,0.5,0.4,0.6l5.6,3.3c0.2,0.1,0.5,0.2,0.7,0.1
			c0.3-0.1,0.5-0.2,0.6-0.5l2.7-4.7l1.4,0.8c0.2,0.1,0.5,0.2,0.7,0.1c0.2-0.1,0.5-0.2,0.6-0.5l10.3-17.8c6,4.2,9.6,11,9.6,18.4
			c0,12.4-10.1,22.4-22.5,22.4H47.2c-0.5,0-1,0.4-1,1v8.9c0,0.5,0.4,1,1,1h53.1c0.5,0,1-0.4,1-1v-8.9
			C101.2,107.9,100.8,107.5,100.3,107.5z"/>
		<path style="fill:#FFFFFF;" d="M66.1,102.3c0.3,0,0.7-0.2,0.8-0.5l2.1-3.7c0.1-0.2,0.2-0.5,0.1-0.7c0-0.2-0.2-0.5-0.4-0.6
			L47.1,84.3c-0.5-0.3-1.1-0.1-1.3,0.4l-2.1,3.7c-0.1,0.2-0.2,0.5-0.1,0.7c0.1,0.2,0.2,0.5,0.5,0.6l21.6,12.5
			C65.7,102.3,65.9,102.3,66.1,102.3z"/>
	</g>
</g>
</svg>
