<?xml version="1.0" encoding="utf-8"?>
<!-- Generator: Adobe Illustrator 22.0.1, SVG Export Plug-In . SVG Version: 6.00 Build 0)  -->
<svg version="1.1" id="Livello_1" xmlns="http://www.w3.org/2000/svg" xmlns:xlink="http://www.w3.org/1999/xlink" x="0px" y="0px"
	 viewBox="0 0 150 150" style="enable-background:new 0 0 150 150;" xml:space="preserve">
<g>
	<path style="fill:#FFFFFF;" d="M98,103.7L40.5,49c-0.5-0.5-1.2-0.7-1.9-0.7c-0.4,0-0.7,0.1-1.1,0.2c-1,0.4-1.6,1.4-1.6,2.5l1,79.4
		c0,1.1,0.7,2.1,1.7,2.5c0.3,0.1,0.7,0.2,1,0.2c0.7,0,1.4-0.3,2-0.8l14.8-15.6l6.9,15.9c0.4,1,1.4,1.6,2.5,1.6
		c0.4,0,0.7-0.1,1.1-0.2l13.4-5.8c1.4-0.6,2-2.2,1.4-3.6l-6.9-15.9l21.5-0.2c1.1,0,2.1-0.7,2.5-1.7C99.1,105.7,98.8,104.5,98,103.7z
		"/>
	<g>
		<path style="fill:#FFFFFF;" d="M60,76.7H5.3c-1.7,0-3-1.4-3-3V18.9c0-1.7,1.4-3,3-3H60c1.7,0,3,1.4,3,3v54.8
			C63.1,75.3,61.7,76.7,60,76.7z M8.3,70.6H57V21.9H8.3V70.6z"/>
	</g>
	<g>
		<path style="fill:#FFFFFF;" d="M144.7,76.7H90c-1.7,0-3-1.4-3-3V18.9c0-1.7,1.4-3,3-3h54.8c1.7,0,3,1.4,3,3v54.8
			C147.8,75.3,146.4,76.7,144.7,76.7z M93,70.6h48.7V21.9H93V70.6z"/>
	</g>
</g>
</svg>
